<?xml version="1.0" encoding="UTF-8" standalone="no"?>
<!DOCTYPE svg PUBLIC "-//W3C//DTD SVG 1.1//EN"
 "http://www.w3.org/Graphics/SVG/1.1/DTD/svg11.dtd">
<!-- Generated by graphviz version 12.2.1 (20241206.2353)
 -->
<!-- Title: Boxing Pages: 1 -->
<svg width="1599pt" height="346pt"
 viewBox="0.00 0.00 1599.00 346.00" xmlns="http://www.w3.org/2000/svg" xmlns:xlink="http://www.w3.org/1999/xlink">
<g id="graph0" class="graph" transform="scale(1 1) rotate(0) translate(4 342)">
<title>Boxing</title>
<polygon fill="white" stroke="none" points="-4,4 -4,-342 1595,-342 1595,4 -4,4"/>
<!-- RegisteredBoxers -->
<g id="node1" class="node">
<title>RegisteredBoxers</title>
<path fill="none" stroke="black" d="M914.38,-338C914.38,-338 864.62,-338 864.62,-338 858.62,-338 852.62,-332 852.62,-326 852.62,-326 852.62,-309 852.62,-309 852.62,-303 858.62,-297 864.62,-297 864.62,-297 914.38,-297 914.38,-297 920.38,-297 926.38,-303 926.38,-309 926.38,-309 926.38,-326 926.38,-326 926.38,-332 920.38,-338 914.38,-338"/>
<text text-anchor="middle" x="889.5" y="-320.7" font-family="Times New Roman,serif" font-size="14.00">Registered</text>
<text text-anchor="middle" x="889.5" y="-304.2" font-family="Times New Roman,serif" font-size="14.00"> Boxers</text>
</g>
<!-- Male -->
<g id="node2" class="node">
<title>Male</title>
<path fill="none" stroke="black" d="M831.5,-242C831.5,-242 801.5,-242 801.5,-242 795.5,-242 789.5,-236 789.5,-230 789.5,-230 789.5,-218 789.5,-218 789.5,-212 795.5,-206 801.5,-206 801.5,-206 831.5,-206 831.5,-206 837.5,-206 843.5,-212 843.5,-218 843.5,-218 843.5,-230 843.5,-230 843.5,-236 837.5,-242 831.5,-242"/>
<text text-anchor="middle" x="816.5" y="-218.95" font-family="Times New Roman,serif" font-size="14.00">Male</text>
</g>
<!-- RegisteredBoxers&#45;&gt;Male -->
<g id="edge1" class="edge">
<title>RegisteredBoxers&#45;&gt;Male</title>
<path fill="none" stroke="black" d="M873.66,-296.65C863.07,-283.37 849.01,-265.75 837.48,-251.3"/>
<polygon fill="black" stroke="black" points="840.26,-249.17 831.28,-243.53 834.79,-253.53 840.26,-249.17"/>
</g>
<!-- Female -->
<g id="node3" class="node">
<title>Female</title>
<path fill="none" stroke="black" d="M905.75,-242C905.75,-242 873.25,-242 873.25,-242 867.25,-242 861.25,-236 861.25,-230 861.25,-230 861.25,-218 861.25,-218 861.25,-212 867.25,-206 873.25,-206 873.25,-206 905.75,-206 905.75,-206 911.75,-206 917.75,-212 917.75,-218 917.75,-218 917.75,-230 917.75,-230 917.75,-236 911.75,-242 905.75,-242"/>
<text text-anchor="middle" x="889.5" y="-218.95" font-family="Times New Roman,serif" font-size="14.00">Female</text>
</g>
<!-- RegisteredBoxers&#45;&gt;Female -->
<g id="edge3" class="edge">
<title>RegisteredBoxers&#45;&gt;Female</title>
<path fill="none" stroke="black" d="M889.5,-296.65C889.5,-284.13 889.5,-267.75 889.5,-253.81"/>
<polygon fill="black" stroke="black" points="893,-253.86 889.5,-243.86 886,-253.86 893,-253.86"/>
</g>
<!-- Notfit -->
<g id="node4" class="node">
<title>Notfit</title>
<path fill="none" stroke="black" d="M977.5,-244.5C977.5,-244.5 947.5,-244.5 947.5,-244.5 941.5,-244.5 935.5,-238.5 935.5,-232.5 935.5,-232.5 935.5,-215.5 935.5,-215.5 935.5,-209.5 941.5,-203.5 947.5,-203.5 947.5,-203.5 977.5,-203.5 977.5,-203.5 983.5,-203.5 989.5,-209.5 989.5,-215.5 989.5,-215.5 989.5,-232.5 989.5,-232.5 989.5,-238.5 983.5,-244.5 977.5,-244.5"/>
<text text-anchor="middle" x="962.5" y="-227.2" font-family="Times New Roman,serif" font-size="14.00">Not</text>
<text text-anchor="middle" x="962.5" y="-210.7" font-family="Times New Roman,serif" font-size="14.00"> Fit</text>
</g>
<!-- RegisteredBoxers&#45;&gt;Notfit -->
<g id="edge2" class="edge">
<title>RegisteredBoxers&#45;&gt;Notfit</title>
<path fill="none" stroke="black" d="M905.34,-296.65C915.38,-284.06 928.54,-267.57 939.7,-253.58"/>
<polygon fill="black" stroke="black" points="942.25,-256 945.75,-246 936.77,-251.63 942.25,-256"/>
<text text-anchor="middle" x="952.04" y="-265.7" font-family="Times New Roman,serif" font-size="14.00">Not Fit</text>
</g>
<!-- MaleSchools -->
<g id="node5" class="node">
<title>MaleSchools</title>
<path fill="none" stroke="black" d="M286.75,-134.5C286.75,-134.5 248.25,-134.5 248.25,-134.5 242.25,-134.5 236.25,-128.5 236.25,-122.5 236.25,-122.5 236.25,-105.5 236.25,-105.5 236.25,-99.5 242.25,-93.5 248.25,-93.5 248.25,-93.5 286.75,-93.5 286.75,-93.5 292.75,-93.5 298.75,-99.5 298.75,-105.5 298.75,-105.5 298.75,-122.5 298.75,-122.5 298.75,-128.5 292.75,-134.5 286.75,-134.5"/>
<text text-anchor="middle" x="267.5" y="-117.2" font-family="Times New Roman,serif" font-size="14.00">Male</text>
<text text-anchor="middle" x="267.5" y="-100.7" font-family="Times New Roman,serif" font-size="14.00"> Schools</text>
</g>
<!-- Male&#45;&gt;MaleSchools -->
<g id="edge4" class="edge">
<title>Male&#45;&gt;MaleSchools</title>
<path fill="none" stroke="black" d="M789.15,-217.77C751.54,-210.56 681.74,-197.15 622.25,-185.5 509.47,-163.41 376.64,-136.87 310.07,-123.54"/>
<polygon fill="black" stroke="black" points="310.79,-120.11 300.29,-121.58 309.41,-126.98 310.79,-120.11"/>
<text text-anchor="middle" x="653.38" y="-172.2" font-family="Times New Roman,serif" font-size="14.00">Yob</text>
<text text-anchor="middle" x="653.38" y="-155.7" font-family="Times New Roman,serif" font-size="14.00"> 2012&#45;2014</text>
</g>
<!-- MaleJunior -->
<g id="node6" class="node">
<title>MaleJunior</title>
<path fill="none" stroke="black" d="M633.5,-134.5C633.5,-134.5 603.5,-134.5 603.5,-134.5 597.5,-134.5 591.5,-128.5 591.5,-122.5 591.5,-122.5 591.5,-105.5 591.5,-105.5 591.5,-99.5 597.5,-93.5 603.5,-93.5 603.5,-93.5 633.5,-93.5 633.5,-93.5 639.5,-93.5 645.5,-99.5 645.5,-105.5 645.5,-105.5 645.5,-122.5 645.5,-122.5 645.5,-128.5 639.5,-134.5 633.5,-134.5"/>
<text text-anchor="middle" x="618.5" y="-117.2" font-family="Times New Roman,serif" font-size="14.00">Male</text>
<text text-anchor="middle" x="618.5" y="-100.7" font-family="Times New Roman,serif" font-size="14.00"> Junior</text>
</g>
<!-- Male&#45;&gt;MaleJunior -->
<g id="edge5" class="edge">
<title>Male&#45;&gt;MaleJunior</title>
<path fill="none" stroke="black" d="M789.38,-208.21C754.77,-189.33 694.73,-156.58 655.82,-135.35"/>
<polygon fill="black" stroke="black" points="657.71,-132.4 647.25,-130.68 654.36,-138.54 657.71,-132.4"/>
<text text-anchor="middle" x="777.93" y="-172.2" font-family="Times New Roman,serif" font-size="14.00">Yob</text>
<text text-anchor="middle" x="777.93" y="-155.7" font-family="Times New Roman,serif" font-size="14.00"> 2010&#45;2011</text>
</g>
<!-- MaleYouth -->
<g id="node7" class="node">
<title>MaleYouth</title>
<path fill="none" stroke="black" d="M944.5,-134.5C944.5,-134.5 914.5,-134.5 914.5,-134.5 908.5,-134.5 902.5,-128.5 902.5,-122.5 902.5,-122.5 902.5,-105.5 902.5,-105.5 902.5,-99.5 908.5,-93.5 914.5,-93.5 914.5,-93.5 944.5,-93.5 944.5,-93.5 950.5,-93.5 956.5,-99.5 956.5,-105.5 956.5,-105.5 956.5,-122.5 956.5,-122.5 956.5,-128.5 950.5,-134.5 944.5,-134.5"/>
<text text-anchor="middle" x="929.5" y="-117.2" font-family="Times New Roman,serif" font-size="14.00">Male</text>
<text text-anchor="middle" x="929.5" y="-100.7" font-family="Times New Roman,serif" font-size="14.00"> Youth</text>
</g>
<!-- Male&#45;&gt;MaleYouth -->
<g id="edge6" class="edge">
<title>Male&#45;&gt;MaleYouth</title>
<path fill="none" stroke="black" d="M834.66,-205.65C852.42,-188.67 879.76,-162.54 900.54,-142.68"/>
<polygon fill="black" stroke="black" points="902.8,-145.36 907.61,-135.92 897.96,-140.3 902.8,-145.36"/>
<text text-anchor="middle" x="920.85" y="-172.2" font-family="Times New Roman,serif" font-size="14.00">Yob</text>
<text text-anchor="middle" x="920.85" y="-155.7" font-family="Times New Roman,serif" font-size="14.00"> 2008&#45;2009</text>
</g>
<!-- MaleSenior -->
<g id="node8" class="node">
<title>MaleSenior</title>
<path fill="none" stroke="black" d="M1339,-134.5C1339,-134.5 1308,-134.5 1308,-134.5 1302,-134.5 1296,-128.5 1296,-122.5 1296,-122.5 1296,-105.5 1296,-105.5 1296,-99.5 1302,-93.5 1308,-93.5 1308,-93.5 1339,-93.5 1339,-93.5 1345,-93.5 1351,-99.5 1351,-105.5 1351,-105.5 1351,-122.5 1351,-122.5 1351,-128.5 1345,-134.5 1339,-134.5"/>
<text text-anchor="middle" x="1323.5" y="-117.2" font-family="Times New Roman,serif" font-size="14.00">Male</text>
<text text-anchor="middle" x="1323.5" y="-100.7" font-family="Times New Roman,serif" font-size="14.00"> Senior</text>
</g>
<!-- Male&#45;&gt;MaleSenior -->
<g id="edge7" class="edge">
<title>Male&#45;&gt;MaleSenior</title>
<path fill="none" stroke="black" d="M844,-206.96C846.82,-205.66 849.68,-204.48 852.5,-203.5 896.39,-188.23 909.79,-193.87 955.5,-185.5 1075.62,-163.5 1217.46,-135.85 1284.57,-122.67"/>
<polygon fill="black" stroke="black" points="1285.21,-126.12 1294.35,-120.75 1283.86,-119.25 1285.21,-126.12"/>
<text text-anchor="middle" x="1147.98" y="-172.2" font-family="Times New Roman,serif" font-size="14.00">Yob</text>
<text text-anchor="middle" x="1147.98" y="-155.7" font-family="Times New Roman,serif" font-size="14.00"> ≤ 2007</text>
</g>
<!-- MaleSchools_Novice -->
<g id="node9" class="node">
<title>MaleSchools_Novice</title>
<path fill="none" stroke="black" d="M97,-41C97,-41 12,-41 12,-41 6,-41 0,-35 0,-29 0,-29 0,-12 0,-12 0,-6 6,0 12,0 12,0 97,0 97,0 103,0 109,-6 109,-12 109,-12 109,-29 109,-29 109,-35 103,-41 97,-41"/>
<text text-anchor="middle" x="54.5" y="-23.7" font-family="Times New Roman,serif" font-size="14.00">Male</text>
<text text-anchor="middle" x="54.5" y="-7.2" font-family="Times New Roman,serif" font-size="14.00"> Schools Novice </text>
</g>
<!-- MaleSchools&#45;&gt;MaleSchools_Novice -->
<g id="edge8" class="edge">
<title>MaleSchools&#45;&gt;MaleSchools_Novice</title>
<path fill="none" stroke="black" d="M235.9,-102.57C215.22,-95.49 187.74,-85.62 164,-75.5 143.52,-66.77 121.41,-56.11 102.45,-46.58"/>
<polygon fill="black" stroke="black" points="104.13,-43.5 93.63,-42.1 100.96,-49.75 104.13,-43.5"/>
<text text-anchor="middle" x="191.75" y="-62.2" font-family="Times New Roman,serif" font-size="14.00">0&#45;5 Fights</text>
</g>
<!-- MaleSchools_Experienced -->
<g id="node10" class="node">
<title>MaleSchools_Experienced</title>
<path fill="none" stroke="black" d="M248.38,-41C248.38,-41 138.62,-41 138.62,-41 132.62,-41 126.62,-35 126.62,-29 126.62,-29 126.62,-12 126.62,-12 126.62,-6 132.62,0 138.62,0 138.62,0 248.38,0 248.38,0 254.38,0 260.38,-6 260.38,-12 260.38,-12 260.38,-29 260.38,-29 260.38,-35 254.38,-41 248.38,-41"/>
<text text-anchor="middle" x="193.5" y="-23.7" font-family="Times New Roman,serif" font-size="14.00">Male</text>
<text text-anchor="middle" x="193.5" y="-7.2" font-family="Times New Roman,serif" font-size="14.00"> Schools Experienced</text>
</g>
<!-- MaleSchools&#45;&gt;MaleSchools_Experienced -->
<g id="edge9" class="edge">
<title>MaleSchools&#45;&gt;MaleSchools_Experienced</title>
<path fill="none" stroke="black" d="M251.44,-93.15C241.26,-80.56 227.92,-64.07 216.61,-50.08"/>
<polygon fill="black" stroke="black" points="219.49,-48.07 210.48,-42.49 214.04,-52.47 219.49,-48.07"/>
<text text-anchor="middle" x="268.25" y="-62.2" font-family="Times New Roman,serif" font-size="14.00">6&#45;10 Fights</text>
</g>
<!-- MaleSchools_OpenClass -->
<g id="node11" class="node">
<title>MaleSchools_OpenClass</title>
<path fill="none" stroke="black" d="M394.75,-41C394.75,-41 290.25,-41 290.25,-41 284.25,-41 278.25,-35 278.25,-29 278.25,-29 278.25,-12 278.25,-12 278.25,-6 284.25,0 290.25,0 290.25,0 394.75,0 394.75,0 400.75,0 406.75,-6 406.75,-12 406.75,-12 406.75,-29 406.75,-29 406.75,-35 400.75,-41 394.75,-41"/>
<text text-anchor="middle" x="342.5" y="-23.7" font-family="Times New Roman,serif" font-size="14.00">Male</text>
<text text-anchor="middle" x="342.5" y="-7.2" font-family="Times New Roman,serif" font-size="14.00"> Schools Open Class</text>
</g>
<!-- MaleSchools&#45;&gt;MaleSchools_OpenClass -->
<g id="edge10" class="edge">
<title>MaleSchools&#45;&gt;MaleSchools_OpenClass</title>
<path fill="none" stroke="black" d="M287.46,-93.24C292.83,-87.65 298.53,-81.46 303.5,-75.5 310,-67.71 316.62,-58.93 322.52,-50.74"/>
<polygon fill="black" stroke="black" points="325.26,-52.91 328.18,-42.73 319.55,-48.87 325.26,-52.91"/>
<text text-anchor="middle" x="345.57" y="-62.2" font-family="Times New Roman,serif" font-size="14.00">11+ Fights</text>
</g>
<!-- MaleJunior_Novice -->
<g id="node12" class="node">
<title>MaleJunior_Novice</title>
<path fill="none" stroke="black" d="M508.62,-41C508.62,-41 436.38,-41 436.38,-41 430.38,-41 424.38,-35 424.38,-29 424.38,-29 424.38,-12 424.38,-12 424.38,-6 430.38,0 436.38,0 436.38,0 508.62,0 508.62,0 514.62,0 520.62,-6 520.62,-12 520.62,-12 520.62,-29 520.62,-29 520.62,-35 514.62,-41 508.62,-41"/>
<text text-anchor="middle" x="472.5" y="-23.7" font-family="Times New Roman,serif" font-size="14.00">Male</text>
<text text-anchor="middle" x="472.5" y="-7.2" font-family="Times New Roman,serif" font-size="14.00"> Junior Novice</text>
</g>
<!-- MaleJunior&#45;&gt;MaleJunior_Novice -->
<g id="edge11" class="edge">
<title>MaleJunior&#45;&gt;MaleJunior_Novice</title>
<path fill="none" stroke="black" d="M591.01,-99.14C578.06,-92.36 562.52,-83.88 549,-75.5 535.35,-67.04 520.83,-57.06 508.16,-48.01"/>
<polygon fill="black" stroke="black" points="510.26,-45.2 500.1,-42.18 506.16,-50.88 510.26,-45.2"/>
<text text-anchor="middle" x="576.75" y="-62.2" font-family="Times New Roman,serif" font-size="14.00">0&#45;5 Fights</text>
</g>
<!-- MaleJunior_Experienced -->
<g id="node13" class="node">
<title>MaleJunior_Experienced</title>
<path fill="none" stroke="black" d="M651.88,-41C651.88,-41 551.12,-41 551.12,-41 545.12,-41 539.12,-35 539.12,-29 539.12,-29 539.12,-12 539.12,-12 539.12,-6 545.12,0 551.12,0 551.12,0 651.88,0 651.88,0 657.88,0 663.88,-6 663.88,-12 663.88,-12 663.88,-29 663.88,-29 663.88,-35 657.88,-41 651.88,-41"/>
<text text-anchor="middle" x="601.5" y="-23.7" font-family="Times New Roman,serif" font-size="14.00"> Male</text>
<text text-anchor="middle" x="601.5" y="-7.2" font-family="Times New Roman,serif" font-size="14.00"> Junior Experienced</text>
</g>
<!-- MaleJunior&#45;&gt;MaleJunior_Experienced -->
<g id="edge12" class="edge">
<title>MaleJunior&#45;&gt;MaleJunior_Experienced</title>
<path fill="none" stroke="black" d="M614.81,-93.15C612.61,-81.28 609.76,-65.94 607.26,-52.5"/>
<polygon fill="black" stroke="black" points="610.73,-52 605.46,-42.8 603.84,-53.27 610.73,-52"/>
<text text-anchor="middle" x="642.65" y="-62.2" font-family="Times New Roman,serif" font-size="14.00">6&#45;10 Fights</text>
</g>
<!-- MaleJunior_OpenClass -->
<g id="node14" class="node">
<title>MaleJunior_OpenClass</title>
<path fill="none" stroke="black" d="M789.25,-41C789.25,-41 693.75,-41 693.75,-41 687.75,-41 681.75,-35 681.75,-29 681.75,-29 681.75,-12 681.75,-12 681.75,-6 687.75,0 693.75,0 693.75,0 789.25,0 789.25,0 795.25,0 801.25,-6 801.25,-12 801.25,-12 801.25,-29 801.25,-29 801.25,-35 795.25,-41 789.25,-41"/>
<text text-anchor="middle" x="741.5" y="-23.7" font-family="Times New Roman,serif" font-size="14.00"> Male</text>
<text text-anchor="middle" x="741.5" y="-7.2" font-family="Times New Roman,serif" font-size="14.00"> Junior Open Class</text>
</g>
<!-- MaleJunior&#45;&gt;MaleJunior_OpenClass -->
<g id="edge13" class="edge">
<title>MaleJunior&#45;&gt;MaleJunior_OpenClass</title>
<path fill="none" stroke="black" d="M645.74,-96.76C655.91,-90.42 667.42,-82.9 677.5,-75.5 688.74,-67.25 700.54,-57.6 710.9,-48.76"/>
<polygon fill="black" stroke="black" points="713.16,-51.43 718.44,-42.24 708.59,-46.13 713.16,-51.43"/>
<text text-anchor="middle" x="727.1" y="-62.2" font-family="Times New Roman,serif" font-size="14.00">11+ Fights</text>
</g>
<!-- MaleYouth_Novice -->
<g id="node15" class="node">
<title>MaleYouth_Novice</title>
<path fill="none" stroke="black" d="M901.88,-41C901.88,-41 831.12,-41 831.12,-41 825.12,-41 819.12,-35 819.12,-29 819.12,-29 819.12,-12 819.12,-12 819.12,-6 825.12,0 831.12,0 831.12,0 901.88,0 901.88,0 907.88,0 913.88,-6 913.88,-12 913.88,-12 913.88,-29 913.88,-29 913.88,-35 907.88,-41 901.88,-41"/>
<text text-anchor="middle" x="866.5" y="-23.7" font-family="Times New Roman,serif" font-size="14.00">Male</text>
<text text-anchor="middle" x="866.5" y="-7.2" font-family="Times New Roman,serif" font-size="14.00"> Youth Novice</text>
</g>
<!-- MaleYouth&#45;&gt;MaleYouth_Novice -->
<g id="edge14" class="edge">
<title>MaleYouth&#45;&gt;MaleYouth_Novice</title>
<path fill="none" stroke="black" d="M915.83,-93.15C907.24,-80.68 896.02,-64.38 886.45,-50.48"/>
<polygon fill="black" stroke="black" points="889.56,-48.81 881,-42.56 883.79,-52.78 889.56,-48.81"/>
<text text-anchor="middle" x="931.39" y="-62.2" font-family="Times New Roman,serif" font-size="14.00">0&#45;5 Fights</text>
</g>
<!-- MaleYouth_Experienced -->
<g id="node16" class="node">
<title>MaleYouth_Experienced</title>
<path fill="none" stroke="black" d="M1043.12,-41C1043.12,-41 943.88,-41 943.88,-41 937.88,-41 931.88,-35 931.88,-29 931.88,-29 931.88,-12 931.88,-12 931.88,-6 937.88,0 943.88,0 943.88,0 1043.12,0 1043.12,0 1049.12,0 1055.12,-6 1055.12,-12 1055.12,-12 1055.12,-29 1055.12,-29 1055.12,-35 1049.12,-41 1043.12,-41"/>
<text text-anchor="middle" x="993.5" y="-23.7" font-family="Times New Roman,serif" font-size="14.00">Male</text>
<text text-anchor="middle" x="993.5" y="-7.2" font-family="Times New Roman,serif" font-size="14.00"> Youth Experienced</text>
</g>
<!-- MaleYouth&#45;&gt;MaleYouth_Experienced -->
<g id="edge15" class="edge">
<title>MaleYouth&#45;&gt;MaleYouth_Experienced</title>
<path fill="none" stroke="black" d="M949.1,-93.09C954.06,-87.6 959.2,-81.5 963.5,-75.5 968.84,-68.04 973.96,-59.54 978.42,-51.53"/>
<polygon fill="black" stroke="black" points="981.49,-53.2 983.13,-42.73 975.32,-49.89 981.49,-53.2"/>
<text text-anchor="middle" x="1004.76" y="-62.2" font-family="Times New Roman,serif" font-size="14.00">6&#45;10 Fights</text>
</g>
<!-- MaleYouth_OpenClass -->
<g id="node17" class="node">
<title>MaleYouth_OpenClass</title>
<path fill="none" stroke="black" d="M1179.5,-41C1179.5,-41 1085.5,-41 1085.5,-41 1079.5,-41 1073.5,-35 1073.5,-29 1073.5,-29 1073.5,-12 1073.5,-12 1073.5,-6 1079.5,0 1085.5,0 1085.5,0 1179.5,0 1179.5,0 1185.5,0 1191.5,-6 1191.5,-12 1191.5,-12 1191.5,-29 1191.5,-29 1191.5,-35 1185.5,-41 1179.5,-41"/>
<text text-anchor="middle" x="1132.5" y="-23.7" font-family="Times New Roman,serif" font-size="14.00">Male</text>
<text text-anchor="middle" x="1132.5" y="-7.2" font-family="Times New Roman,serif" font-size="14.00"> Youth Open Class</text>
</g>
<!-- MaleYouth&#45;&gt;MaleYouth_OpenClass -->
<g id="edge16" class="edge">
<title>MaleYouth&#45;&gt;MaleYouth_OpenClass</title>
<path fill="none" stroke="black" d="M956.75,-105.35C979.37,-98.62 1012.14,-87.96 1039.5,-75.5 1057.37,-67.36 1076.25,-56.8 1092.3,-47.17"/>
<polygon fill="black" stroke="black" points="1093.88,-50.31 1100.6,-42.12 1090.24,-44.33 1093.88,-50.31"/>
<text text-anchor="middle" x="1100.71" y="-62.2" font-family="Times New Roman,serif" font-size="14.00">11+ Fights</text>
</g>
<!-- MaleSenior_Novice -->
<g id="node18" class="node">
<title>MaleSenior_Novice</title>
<path fill="none" stroke="black" d="M1295.38,-41C1295.38,-41 1221.62,-41 1221.62,-41 1215.62,-41 1209.62,-35 1209.62,-29 1209.62,-29 1209.62,-12 1209.62,-12 1209.62,-6 1215.62,0 1221.62,0 1221.62,0 1295.38,0 1295.38,0 1301.38,0 1307.38,-6 1307.38,-12 1307.38,-12 1307.38,-29 1307.38,-29 1307.38,-35 1301.38,-41 1295.38,-41"/>
<text text-anchor="middle" x="1258.5" y="-23.7" font-family="Times New Roman,serif" font-size="14.00">Male</text>
<text text-anchor="middle" x="1258.5" y="-7.2" font-family="Times New Roman,serif" font-size="14.00"> Senior Novice</text>
</g>
<!-- MaleSenior&#45;&gt;MaleSenior_Novice -->
<g id="edge17" class="edge">
<title>MaleSenior&#45;&gt;MaleSenior_Novice</title>
<path fill="none" stroke="black" d="M1309.4,-93.15C1300.54,-80.68 1288.96,-64.38 1279.09,-50.48"/>
<polygon fill="black" stroke="black" points="1282.1,-48.67 1273.45,-42.55 1276.39,-52.73 1282.1,-48.67"/>
<text text-anchor="middle" x="1324.57" y="-62.2" font-family="Times New Roman,serif" font-size="14.00">0&#45;5 Fights</text>
</g>
<!-- MaleSenior_Experienced -->
<g id="node19" class="node">
<title>MaleSenior_Experienced</title>
<path fill="none" stroke="black" d="M1439.62,-41C1439.62,-41 1337.38,-41 1337.38,-41 1331.38,-41 1325.38,-35 1325.38,-29 1325.38,-29 1325.38,-12 1325.38,-12 1325.38,-6 1331.38,0 1337.38,0 1337.38,0 1439.62,0 1439.62,0 1445.62,0 1451.62,-6 1451.62,-12 1451.62,-12 1451.62,-29 1451.62,-29 1451.62,-35 1445.62,-41 1439.62,-41"/>
<text text-anchor="middle" x="1388.5" y="-23.7" font-family="Times New Roman,serif" font-size="14.00">Male</text>
<text text-anchor="middle" x="1388.5" y="-7.2" font-family="Times New Roman,serif" font-size="14.00"> Senior Experienced</text>
</g>
<!-- MaleSenior&#45;&gt;MaleSenior_Experienced -->
<g id="edge18" class="edge">
<title>MaleSenior&#45;&gt;MaleSenior_Experienced</title>
<path fill="none" stroke="black" d="M1342.03,-93.34C1346.95,-87.75 1352.12,-81.53 1356.5,-75.5 1362.04,-67.88 1367.49,-59.24 1372.28,-51.15"/>
<polygon fill="black" stroke="black" points="1375.23,-53.02 1377.19,-42.61 1369.17,-49.53 1375.23,-53.02"/>
<text text-anchor="middle" x="1398.17" y="-62.2" font-family="Times New Roman,serif" font-size="14.00">6&#45;10 Fights</text>
</g>
<!-- MaleSenior_OpenClass -->
<g id="node20" class="node">
<title>MaleSenior_OpenClass</title>
<path fill="none" stroke="black" d="M1579,-41C1579,-41 1482,-41 1482,-41 1476,-41 1470,-35 1470,-29 1470,-29 1470,-12 1470,-12 1470,-6 1476,0 1482,0 1482,0 1579,0 1579,0 1585,0 1591,-6 1591,-12 1591,-12 1591,-29 1591,-29 1591,-35 1585,-41 1579,-41"/>
<text text-anchor="middle" x="1530.5" y="-23.7" font-family="Times New Roman,serif" font-size="14.00">Male</text>
<text text-anchor="middle" x="1530.5" y="-7.2" font-family="Times New Roman,serif" font-size="14.00"> Senior Open Class</text>
</g>
<!-- MaleSenior&#45;&gt;MaleSenior_OpenClass -->
<g id="edge19" class="edge">
<title>MaleSenior&#45;&gt;MaleSenior_OpenClass</title>
<path fill="none" stroke="black" d="M1351.14,-105.08C1373.71,-98.27 1406.21,-87.63 1433.5,-75.5 1452.2,-67.19 1472.07,-56.48 1488.93,-46.8"/>
<polygon fill="black" stroke="black" points="1490.28,-50.06 1497.16,-42 1486.76,-44.01 1490.28,-50.06"/>
<text text-anchor="middle" x="1495.96" y="-62.2" font-family="Times New Roman,serif" font-size="14.00">11+ Fights</text>
</g>
</g>
</svg>
