<?xml version="1.0" encoding="UTF-8" standalone="no"?>
<!DOCTYPE svg PUBLIC "-//W3C//DTD SVG 1.1//EN"
 "http://www.w3.org/Graphics/SVG/1.1/DTD/svg11.dtd">
<!-- Generated by graphviz version 12.2.1 (20241206.2353)
 -->
<!-- Title: Boxing Pages: 1 -->
<svg width="1088pt" height="342pt"
 viewBox="0.00 0.00 1087.50 342.00" xmlns="http://www.w3.org/2000/svg" xmlns:xlink="http://www.w3.org/1999/xlink">
<g id="graph0" class="graph" transform="scale(1 1) rotate(0) translate(4 338)">
<title>Boxing</title>
<!-- RegisteredBoxers -->
<g id="node1" class="node">
<title>RegisteredBoxers</title>
<path fill="#134e4a" stroke="#0f766e" stroke-width="2" d="M665.25,-334C665.25,-334 608,-334 608,-334 602,-334 596,-328 596,-322 596,-322 596,-306.5 596,-306.5 596,-300.5 602,-294.5 608,-294.5 608,-294.5 665.25,-294.5 665.25,-294.5 671.25,-294.5 677.25,-300.5 677.25,-306.5 677.25,-306.5 677.25,-322 677.25,-322 677.25,-328 671.25,-334 665.25,-334"/>
<text text-anchor="middle" x="636.62" y="-316.7" font-family="Helvetica,sans-Serif" font-size="14.00" fill="white">Registered</text>
<text text-anchor="middle" x="636.62" y="-300.95" font-family="Helvetica,sans-Serif" font-size="14.00" fill="white">Boxers</text>
</g>
<!-- Male -->
<g id="node2" class="node">
<title>Male</title>
<path fill="#0f766e" stroke="#0f766e" stroke-width="1.2" d="M574.62,-236.75C574.62,-236.75 544.62,-236.75 544.62,-236.75 538.62,-236.75 532.62,-230.75 532.62,-224.75 532.62,-224.75 532.62,-212.75 532.62,-212.75 532.62,-206.75 538.62,-200.75 544.62,-200.75 544.62,-200.75 574.62,-200.75 574.62,-200.75 580.62,-200.75 586.62,-206.75 586.62,-212.75 586.62,-212.75 586.62,-224.75 586.62,-224.75 586.62,-230.75 580.62,-236.75 574.62,-236.75"/>
<text text-anchor="middle" x="559.62" y="-214.47" font-family="Helvetica,sans-Serif" font-size="12.00" fill="white">Male</text>
</g>
<!-- RegisteredBoxers&#45;&gt;Male -->
<g id="edge1" class="edge">
<title>RegisteredBoxers&#45;&gt;Male</title>
<path fill="none" stroke="#94a3b8" d="M620.67,-293.88C608.86,-279.53 592.68,-259.89 579.94,-244.42"/>
<polygon fill="#94a3b8" stroke="#94a3b8" points="582.21,-242.77 574.96,-238.37 577.89,-246.33 582.21,-242.77"/>
</g>
<!-- Female -->
<g id="node3" class="node">
<title>Female</title>
<path fill="#0f766e" stroke="#0f766e" stroke-width="1.2" d="M652.88,-236.75C652.88,-236.75 620.38,-236.75 620.38,-236.75 614.38,-236.75 608.38,-230.75 608.38,-224.75 608.38,-224.75 608.38,-212.75 608.38,-212.75 608.38,-206.75 614.38,-200.75 620.38,-200.75 620.38,-200.75 652.88,-200.75 652.88,-200.75 658.88,-200.75 664.88,-206.75 664.88,-212.75 664.88,-212.75 664.88,-224.75 664.88,-224.75 664.88,-230.75 658.88,-236.75 652.88,-236.75"/>
<text text-anchor="middle" x="636.62" y="-214.47" font-family="Helvetica,sans-Serif" font-size="12.00" fill="white">Female</text>
</g>
<!-- RegisteredBoxers&#45;&gt;Female -->
<g id="edge3" class="edge">
<title>RegisteredBoxers&#45;&gt;Female</title>
<path fill="none" stroke="#94a3b8" d="M636.62,-293.88C636.62,-280.19 636.62,-261.66 636.62,-246.55"/>
<polygon fill="#94a3b8" stroke="#94a3b8" points="639.43,-246.72 636.63,-238.72 633.83,-246.72 639.43,-246.72"/>
</g>
<!-- Notfit -->
<g id="node4" class="node">
<title>Notfit</title>
<path fill="#0f766e" stroke="#0f766e" stroke-width="1.2" d="M728.62,-237C728.62,-237 698.62,-237 698.62,-237 692.62,-237 686.62,-231 686.62,-225 686.62,-225 686.62,-212.5 686.62,-212.5 686.62,-206.5 692.62,-200.5 698.62,-200.5 698.62,-200.5 728.62,-200.5 728.62,-200.5 734.62,-200.5 740.62,-206.5 740.62,-212.5 740.62,-212.5 740.62,-225 740.62,-225 740.62,-231 734.62,-237 728.62,-237"/>
<text text-anchor="middle" x="713.62" y="-221.6" font-family="Helvetica,sans-Serif" font-size="12.00" fill="white">Not</text>
<text text-anchor="middle" x="713.62" y="-207.35" font-family="Helvetica,sans-Serif" font-size="12.00" fill="white">Fit</text>
</g>
<!-- RegisteredBoxers&#45;&gt;Notfit -->
<g id="edge2" class="edge">
<title>RegisteredBoxers&#45;&gt;Notfit</title>
<path fill="none" stroke="#94a3b8" d="M652.58,-293.88C664.39,-279.53 680.57,-259.89 693.31,-244.42"/>
<polygon fill="#94a3b8" stroke="#94a3b8" points="695.36,-246.33 698.29,-238.37 691.04,-242.77 695.36,-246.33"/>
<text text-anchor="middle" x="696.24" y="-263.95" font-family="Helvetica,sans-Serif" font-style="oblique" font-size="9.00" fill="#94a3b8">Not Fit</text>
</g>
<!-- MaleSchools -->
<g id="node5" class="node">
<title>MaleSchools</title>
<path fill="#2dd4bf" stroke="#0f766e" stroke-width="1.2" d="M197.75,-129.5C197.75,-129.5 167.5,-129.5 167.5,-129.5 161.5,-129.5 155.5,-123.5 155.5,-117.5 155.5,-117.5 155.5,-105.5 155.5,-105.5 155.5,-99.5 161.5,-93.5 167.5,-93.5 167.5,-93.5 197.75,-93.5 197.75,-93.5 203.75,-93.5 209.75,-99.5 209.75,-105.5 209.75,-105.5 209.75,-117.5 209.75,-117.5 209.75,-123.5 203.75,-129.5 197.75,-129.5"/>
<text text-anchor="middle" x="182.62" y="-114.55" font-family="Helvetica,sans-Serif" font-size="11.00" fill="#0f172a">Male</text>
<text text-anchor="middle" x="182.62" y="-101.05" font-family="Helvetica,sans-Serif" font-size="11.00" fill="#0f172a">Schools</text>
</g>
<!-- Male&#45;&gt;MaleSchools -->
<g id="edge4" class="edge">
<title>Male&#45;&gt;MaleSchools</title>
<path fill="none" stroke="#94a3b8" d="M532.13,-210.19C503.52,-202.31 457.42,-189.59 417.62,-178.5 347.35,-158.92 265.33,-135.83 219.13,-122.8"/>
<polygon fill="#94a3b8" stroke="#94a3b8" points="220.03,-120.15 211.57,-120.67 218.51,-125.54 220.03,-120.15"/>
<text text-anchor="middle" x="444.62" y="-169.95" font-family="Helvetica,sans-Serif" font-style="oblique" font-size="9.00" fill="#94a3b8">Yob</text>
<text text-anchor="middle" x="444.62" y="-156.45" font-family="Helvetica,sans-Serif" font-style="oblique" font-size="9.00" fill="#94a3b8"> 2012&#45;2014</text>
</g>
<!-- MaleJunior -->
<g id="node6" class="node">
<title>MaleJunior</title>
<path fill="#2dd4bf" stroke="#0f766e" stroke-width="1.2" d="M440.62,-129.5C440.62,-129.5 410.62,-129.5 410.62,-129.5 404.62,-129.5 398.62,-123.5 398.62,-117.5 398.62,-117.5 398.62,-105.5 398.62,-105.5 398.62,-99.5 404.62,-93.5 410.62,-93.5 410.62,-93.5 440.62,-93.5 440.62,-93.5 446.62,-93.5 452.62,-99.5 452.62,-105.5 452.62,-105.5 452.62,-117.5 452.62,-117.5 452.62,-123.5 446.62,-129.5 440.62,-129.5"/>
<text text-anchor="middle" x="425.62" y="-114.55" font-family="Helvetica,sans-Serif" font-size="11.00" fill="#0f172a">Male</text>
<text text-anchor="middle" x="425.62" y="-101.05" font-family="Helvetica,sans-Serif" font-size="11.00" fill="#0f172a">Junior</text>
</g>
<!-- Male&#45;&gt;MaleJunior -->
<g id="edge5" class="edge">
<title>Male&#45;&gt;MaleJunior</title>
<path fill="none" stroke="#94a3b8" d="M537.5,-200.37C515,-182.7 480,-155.21 455.15,-135.69"/>
<polygon fill="#94a3b8" stroke="#94a3b8" points="457,-133.58 448.98,-130.84 453.54,-137.98 457,-133.58"/>
<text text-anchor="middle" x="535.57" y="-169.95" font-family="Helvetica,sans-Serif" font-style="oblique" font-size="9.00" fill="#94a3b8">Yob</text>
<text text-anchor="middle" x="535.57" y="-156.45" font-family="Helvetica,sans-Serif" font-style="oblique" font-size="9.00" fill="#94a3b8"> 2010&#45;2011</text>
</g>
<!-- MaleYouth -->
<g id="node7" class="node">
<title>MaleYouth</title>
<path fill="#2dd4bf" stroke="#0f766e" stroke-width="1.2" d="M652.62,-129.5C652.62,-129.5 622.62,-129.5 622.62,-129.5 616.62,-129.5 610.62,-123.5 610.62,-117.5 610.62,-117.5 610.62,-105.5 610.62,-105.5 610.62,-99.5 616.62,-93.5 622.62,-93.5 622.62,-93.5 652.62,-93.5 652.62,-93.5 658.62,-93.5 664.62,-99.5 664.62,-105.5 664.62,-105.5 664.62,-117.5 664.62,-117.5 664.62,-123.5 658.62,-129.5 652.62,-129.5"/>
<text text-anchor="middle" x="637.62" y="-114.55" font-family="Helvetica,sans-Serif" font-size="11.00" fill="#0f172a">Male</text>
<text text-anchor="middle" x="637.62" y="-101.05" font-family="Helvetica,sans-Serif" font-size="11.00" fill="#0f172a">Youth</text>
</g>
<!-- Male&#45;&gt;MaleYouth -->
<g id="edge6" class="edge">
<title>Male&#45;&gt;MaleYouth</title>
<path fill="none" stroke="#94a3b8" d="M572.51,-200.37C585.21,-183.23 604.75,-156.86 619.11,-137.48"/>
<polygon fill="#94a3b8" stroke="#94a3b8" points="621.31,-139.22 623.82,-131.12 616.81,-135.88 621.31,-139.22"/>
<text text-anchor="middle" x="634.91" y="-169.95" font-family="Helvetica,sans-Serif" font-style="oblique" font-size="9.00" fill="#94a3b8">Yob</text>
<text text-anchor="middle" x="634.91" y="-156.45" font-family="Helvetica,sans-Serif" font-style="oblique" font-size="9.00" fill="#94a3b8"> 2008&#45;2009</text>
</g>
<!-- MaleSenior -->
<g id="node8" class="node">
<title>MaleSenior</title>
<path fill="#2dd4bf" stroke="#0f766e" stroke-width="1.2" d="M923.62,-129.5C923.62,-129.5 893.62,-129.5 893.62,-129.5 887.62,-129.5 881.62,-123.5 881.62,-117.5 881.62,-117.5 881.62,-105.5 881.62,-105.5 881.62,-99.5 887.62,-93.5 893.62,-93.5 893.62,-93.5 923.62,-93.5 923.62,-93.5 929.62,-93.5 935.62,-99.5 935.62,-105.5 935.62,-105.5 935.62,-117.5 935.62,-117.5 935.62,-123.5 929.62,-129.5 923.62,-129.5"/>
<text text-anchor="middle" x="908.62" y="-114.55" font-family="Helvetica,sans-Serif" font-size="11.00" fill="#0f172a">Male</text>
<text text-anchor="middle" x="908.62" y="-101.05" font-family="Helvetica,sans-Serif" font-size="11.00" fill="#0f172a">Senior</text>
</g>
<!-- Male&#45;&gt;MaleSenior -->
<g id="edge7" class="edge">
<title>Male&#45;&gt;MaleSenior</title>
<path fill="none" stroke="#94a3b8" d="M586.82,-204.81C590.42,-203.28 594.09,-201.8 597.62,-200.5 648.94,-181.72 802.17,-140.58 872.55,-121.97"/>
<polygon fill="#94a3b8" stroke="#94a3b8" points="873.03,-124.74 880.05,-119.99 871.6,-119.33 873.03,-124.74"/>
<text text-anchor="middle" x="779.65" y="-169.95" font-family="Helvetica,sans-Serif" font-style="oblique" font-size="9.00" fill="#94a3b8">Yob</text>
<text text-anchor="middle" x="779.65" y="-156.45" font-family="Helvetica,sans-Serif" font-style="oblique" font-size="9.00" fill="#94a3b8"> ≤ 2007</text>
</g>
<!-- MaleSchools_Novice -->
<g id="node9" class="node">
<title>MaleSchools_Novice</title>
<path fill="#99f6e4" stroke="#0f766e" stroke-width="1.2" d="M63.25,-36C63.25,-36 12,-36 12,-36 6,-36 0,-30 0,-24 0,-24 0,-12 0,-12 0,-6 6,0 12,0 12,0 63.25,0 63.25,0 69.25,0 75.25,-6 75.25,-12 75.25,-12 75.25,-24 75.25,-24 75.25,-30 69.25,-36 63.25,-36"/>
<text text-anchor="middle" x="37.62" y="-20.5" font-family="Helvetica,sans-Serif" font-size="10.00" fill="#0f172a">Male Schools</text>
<text text-anchor="middle" x="37.62" y="-8.5" font-family="Helvetica,sans-Serif" font-size="10.00" fill="#0f172a">Novice</text>
</g>
<!-- MaleSchools&#45;&gt;MaleSchools_Novice -->
<g id="edge8" class="edge">
<title>MaleSchools&#45;&gt;MaleSchools_Novice</title>
<path fill="none" stroke="#94a3b8" d="M155.02,-101.67C136.26,-94.96 111.36,-84.66 91.62,-71.5 79.72,-63.56 68.12,-52.82 58.75,-43.11"/>
<polygon fill="#94a3b8" stroke="#94a3b8" points="60.9,-41.31 53.38,-37.39 56.81,-45.14 60.9,-41.31"/>
<text text-anchor="middle" x="115.62" y="-62.95" font-family="Helvetica,sans-Serif" font-style="oblique" font-size="9.00" fill="#94a3b8">0&#45;5 Fights</text>
</g>
<!-- MaleSchools_Experienced -->
<g id="node10" class="node">
<title>MaleSchools_Experienced</title>
<path fill="#99f6e4" stroke="#0f766e" stroke-width="1.2" d="M160.25,-36C160.25,-36 109,-36 109,-36 103,-36 97,-30 97,-24 97,-24 97,-12 97,-12 97,-6 103,0 109,0 109,0 160.25,0 160.25,0 166.25,0 172.25,-6 172.25,-12 172.25,-12 172.25,-24 172.25,-24 172.25,-30 166.25,-36 160.25,-36"/>
<text text-anchor="middle" x="134.62" y="-20.5" font-family="Helvetica,sans-Serif" font-size="10.00" fill="#0f172a">Male Schools</text>
<text text-anchor="middle" x="134.62" y="-8.5" font-family="Helvetica,sans-Serif" font-size="10.00" fill="#0f172a">Experienced</text>
</g>
<!-- MaleSchools&#45;&gt;MaleSchools_Experienced -->
<g id="edge9" class="edge">
<title>MaleSchools&#45;&gt;MaleSchools_Experienced</title>
<path fill="none" stroke="#94a3b8" d="M166.06,-93.31C160.55,-86.86 154.76,-79.22 150.62,-71.5 146.27,-63.36 142.91,-53.85 140.43,-45.19"/>
<polygon fill="#94a3b8" stroke="#94a3b8" points="143.2,-44.7 138.46,-37.68 137.78,-46.13 143.2,-44.7"/>
<text text-anchor="middle" x="177.62" y="-62.95" font-family="Helvetica,sans-Serif" font-style="oblique" font-size="9.00" fill="#94a3b8">6&#45;10 Fights</text>
</g>
<!-- MaleSchools_OpenClass -->
<g id="node11" class="node">
<title>MaleSchools_OpenClass</title>
<path fill="#99f6e4" stroke="#0f766e" stroke-width="1.2" d="M257.25,-36C257.25,-36 206,-36 206,-36 200,-36 194,-30 194,-24 194,-24 194,-12 194,-12 194,-6 200,0 206,0 206,0 257.25,0 257.25,0 263.25,0 269.25,-6 269.25,-12 269.25,-12 269.25,-24 269.25,-24 269.25,-30 263.25,-36 257.25,-36"/>
<text text-anchor="middle" x="231.62" y="-20.5" font-family="Helvetica,sans-Serif" font-size="10.00" fill="#0f172a">Male Schools</text>
<text text-anchor="middle" x="231.62" y="-8.5" font-family="Helvetica,sans-Serif" font-size="10.00" fill="#0f172a">Open Class</text>
</g>
<!-- MaleSchools&#45;&gt;MaleSchools_OpenClass -->
<g id="edge10" class="edge">
<title>MaleSchools&#45;&gt;MaleSchools_OpenClass</title>
<path fill="none" stroke="#94a3b8" d="M193.2,-93.18C197.21,-86.47 201.73,-78.69 205.62,-71.5 210.3,-62.87 215.14,-53.29 219.36,-44.7"/>
<polygon fill="#94a3b8" stroke="#94a3b8" points="221.86,-45.96 222.84,-37.55 216.83,-43.51 221.86,-45.96"/>
<text text-anchor="middle" x="237.85" y="-62.95" font-family="Helvetica,sans-Serif" font-style="oblique" font-size="9.00" fill="#94a3b8">11+ Fights</text>
</g>
<!-- MaleJunior_Novice -->
<g id="node12" class="node">
<title>MaleJunior_Novice</title>
<path fill="#99f6e4" stroke="#0f766e" stroke-width="1.2" d="M345.75,-36C345.75,-36 303.5,-36 303.5,-36 297.5,-36 291.5,-30 291.5,-24 291.5,-24 291.5,-12 291.5,-12 291.5,-6 297.5,0 303.5,0 303.5,0 345.75,0 345.75,0 351.75,0 357.75,-6 357.75,-12 357.75,-12 357.75,-24 357.75,-24 357.75,-30 351.75,-36 345.75,-36"/>
<text text-anchor="middle" x="324.62" y="-20.5" font-family="Helvetica,sans-Serif" font-size="10.00" fill="#0f172a">Male Junior</text>
<text text-anchor="middle" x="324.62" y="-8.5" font-family="Helvetica,sans-Serif" font-size="10.00" fill="#0f172a">Novice</text>
</g>
<!-- MaleJunior&#45;&gt;MaleJunior_Novice -->
<g id="edge11" class="edge">
<title>MaleJunior&#45;&gt;MaleJunior_Novice</title>
<path fill="none" stroke="#94a3b8" d="M398.2,-94.87C387.78,-88.32 376.15,-80.19 366.62,-71.5 357.6,-63.26 348.93,-52.98 341.84,-43.71"/>
<polygon fill="#94a3b8" stroke="#94a3b8" points="344.2,-42.19 337.18,-37.43 339.71,-45.53 344.2,-42.19"/>
<text text-anchor="middle" x="390.62" y="-62.95" font-family="Helvetica,sans-Serif" font-style="oblique" font-size="9.00" fill="#94a3b8">0&#45;5 Fights</text>
</g>
<!-- MaleJunior_Experienced -->
<g id="node13" class="node">
<title>MaleJunior_Experienced</title>
<path fill="#99f6e4" stroke="#0f766e" stroke-width="1.2" d="M437.62,-36C437.62,-36 391.62,-36 391.62,-36 385.62,-36 379.62,-30 379.62,-24 379.62,-24 379.62,-12 379.62,-12 379.62,-6 385.62,0 391.62,0 391.62,0 437.62,0 437.62,0 443.62,0 449.62,-6 449.62,-12 449.62,-12 449.62,-24 449.62,-24 449.62,-30 443.62,-36 437.62,-36"/>
<text text-anchor="middle" x="414.62" y="-20.5" font-family="Helvetica,sans-Serif" font-size="10.00" fill="#0f172a">Male Junior</text>
<text text-anchor="middle" x="414.62" y="-8.5" font-family="Helvetica,sans-Serif" font-size="10.00" fill="#0f172a">Experienced</text>
</g>
<!-- MaleJunior&#45;&gt;MaleJunior_Experienced -->
<g id="edge12" class="edge">
<title>MaleJunior&#45;&gt;MaleJunior_Experienced</title>
<path fill="none" stroke="#94a3b8" d="M423.56,-93.29C421.94,-79.83 419.66,-60.88 417.81,-45.49"/>
<polygon fill="#94a3b8" stroke="#94a3b8" points="420.64,-45.56 416.9,-37.95 415.08,-46.22 420.64,-45.56"/>
<text text-anchor="middle" x="447.78" y="-62.95" font-family="Helvetica,sans-Serif" font-style="oblique" font-size="9.00" fill="#94a3b8">6&#45;10 Fights</text>
</g>
<!-- MaleJunior_OpenClass -->
<g id="node14" class="node">
<title>MaleJunior_OpenClass</title>
<path fill="#99f6e4" stroke="#0f766e" stroke-width="1.2" d="M527.5,-36C527.5,-36 483.75,-36 483.75,-36 477.75,-36 471.75,-30 471.75,-24 471.75,-24 471.75,-12 471.75,-12 471.75,-6 477.75,0 483.75,0 483.75,0 527.5,0 527.5,0 533.5,0 539.5,-6 539.5,-12 539.5,-12 539.5,-24 539.5,-24 539.5,-30 533.5,-36 527.5,-36"/>
<text text-anchor="middle" x="505.62" y="-20.5" font-family="Helvetica,sans-Serif" font-size="10.00" fill="#0f172a">Male Junior</text>
<text text-anchor="middle" x="505.62" y="-8.5" font-family="Helvetica,sans-Serif" font-size="10.00" fill="#0f172a">Open Class</text>
</g>
<!-- MaleJunior&#45;&gt;MaleJunior_OpenClass -->
<g id="edge13" class="edge">
<title>MaleJunior&#45;&gt;MaleJunior_OpenClass</title>
<path fill="none" stroke="#94a3b8" d="M453.02,-94.54C462.28,-88.21 472.15,-80.33 479.62,-71.5 486.23,-63.7 491.66,-53.93 495.81,-44.94"/>
<polygon fill="#94a3b8" stroke="#94a3b8" points="498.34,-46.16 498.94,-37.71 493.19,-43.94 498.34,-46.16"/>
<text text-anchor="middle" x="514.29" y="-62.95" font-family="Helvetica,sans-Serif" font-style="oblique" font-size="9.00" fill="#94a3b8">11+ Fights</text>
</g>
<!-- MaleYouth_Novice -->
<g id="node15" class="node">
<title>MaleYouth_Novice</title>
<path fill="#99f6e4" stroke="#0f766e" stroke-width="1.2" d="M613.62,-36C613.62,-36 573.62,-36 573.62,-36 567.62,-36 561.62,-30 561.62,-24 561.62,-24 561.62,-12 561.62,-12 561.62,-6 567.62,0 573.62,0 573.62,0 613.62,0 613.62,0 619.62,0 625.62,-6 625.62,-12 625.62,-12 625.62,-24 625.62,-24 625.62,-30 619.62,-36 613.62,-36"/>
<text text-anchor="middle" x="593.62" y="-20.5" font-family="Helvetica,sans-Serif" font-size="10.00" fill="#0f172a">Male Youth</text>
<text text-anchor="middle" x="593.62" y="-8.5" font-family="Helvetica,sans-Serif" font-size="10.00" fill="#0f172a">Novice</text>
</g>
<!-- MaleYouth&#45;&gt;MaleYouth_Novice -->
<g id="edge14" class="edge">
<title>MaleYouth&#45;&gt;MaleYouth_Novice</title>
<path fill="none" stroke="#94a3b8" d="M621.99,-93.24C616.81,-86.79 611.4,-79.16 607.62,-71.5 603.62,-63.39 600.66,-53.98 598.51,-45.4"/>
<polygon fill="#94a3b8" stroke="#94a3b8" points="601.25,-44.82 596.75,-37.64 595.79,-46.06 601.25,-44.82"/>
<text text-anchor="middle" x="631.62" y="-62.95" font-family="Helvetica,sans-Serif" font-style="oblique" font-size="9.00" fill="#94a3b8">0&#45;5 Fights</text>
</g>
<!-- MaleYouth_Experienced -->
<g id="node16" class="node">
<title>MaleYouth_Experienced</title>
<path fill="#99f6e4" stroke="#0f766e" stroke-width="1.2" d="M705.62,-36C705.62,-36 659.62,-36 659.62,-36 653.62,-36 647.62,-30 647.62,-24 647.62,-24 647.62,-12 647.62,-12 647.62,-6 653.62,0 659.62,0 659.62,0 705.62,0 705.62,0 711.62,0 717.62,-6 717.62,-12 717.62,-12 717.62,-24 717.62,-24 717.62,-30 711.62,-36 705.62,-36"/>
<text text-anchor="middle" x="682.62" y="-20.5" font-family="Helvetica,sans-Serif" font-size="10.00" fill="#0f172a">Male Youth</text>
<text text-anchor="middle" x="682.62" y="-8.5" font-family="Helvetica,sans-Serif" font-size="10.00" fill="#0f172a">Experienced</text>
</g>
<!-- MaleYouth&#45;&gt;MaleYouth_Experienced -->
<g id="edge15" class="edge">
<title>MaleYouth&#45;&gt;MaleYouth_Experienced</title>
<path fill="none" stroke="#94a3b8" d="M646.09,-93.29C652.83,-79.57 662.38,-60.16 670.03,-44.62"/>
<polygon fill="#94a3b8" stroke="#94a3b8" points="672.36,-46.22 673.38,-37.8 667.33,-43.75 672.36,-46.22"/>
<text text-anchor="middle" x="689.82" y="-62.95" font-family="Helvetica,sans-Serif" font-style="oblique" font-size="9.00" fill="#94a3b8">6&#45;10 Fights</text>
</g>
<!-- MaleYouth_OpenClass -->
<g id="node17" class="node">
<title>MaleYouth_OpenClass</title>
<path fill="#99f6e4" stroke="#0f766e" stroke-width="1.2" d="M795.5,-36C795.5,-36 751.75,-36 751.75,-36 745.75,-36 739.75,-30 739.75,-24 739.75,-24 739.75,-12 739.75,-12 739.75,-6 745.75,0 751.75,0 751.75,0 795.5,0 795.5,0 801.5,0 807.5,-6 807.5,-12 807.5,-12 807.5,-24 807.5,-24 807.5,-30 801.5,-36 795.5,-36"/>
<text text-anchor="middle" x="773.62" y="-20.5" font-family="Helvetica,sans-Serif" font-size="10.00" fill="#0f172a">Male Youth</text>
<text text-anchor="middle" x="773.62" y="-8.5" font-family="Helvetica,sans-Serif" font-size="10.00" fill="#0f172a">Open Class</text>
</g>
<!-- MaleYouth&#45;&gt;MaleYouth_OpenClass -->
<g id="edge16" class="edge">
<title>MaleYouth&#45;&gt;MaleYouth_OpenClass</title>
<path fill="none" stroke="#94a3b8" d="M665.05,-100.66C682.14,-93.84 704.13,-83.79 721.62,-71.5 733.11,-63.43 744.28,-52.66 753.3,-42.98"/>
<polygon fill="#94a3b8" stroke="#94a3b8" points="755.16,-45.11 758.45,-37.3 751.01,-41.35 755.16,-45.11"/>
<text text-anchor="middle" x="762.85" y="-62.95" font-family="Helvetica,sans-Serif" font-style="oblique" font-size="9.00" fill="#94a3b8">11+ Fights</text>
</g>
<!-- MaleSenior_Novice -->
<g id="node18" class="node">
<title>MaleSenior_Novice</title>
<path fill="#99f6e4" stroke="#0f766e" stroke-width="1.2" d="M885.5,-36C885.5,-36 841.75,-36 841.75,-36 835.75,-36 829.75,-30 829.75,-24 829.75,-24 829.75,-12 829.75,-12 829.75,-6 835.75,0 841.75,0 841.75,0 885.5,0 885.5,0 891.5,0 897.5,-6 897.5,-12 897.5,-12 897.5,-24 897.5,-24 897.5,-30 891.5,-36 885.5,-36"/>
<text text-anchor="middle" x="863.62" y="-20.5" font-family="Helvetica,sans-Serif" font-size="10.00" fill="#0f172a">Male Senior</text>
<text text-anchor="middle" x="863.62" y="-8.5" font-family="Helvetica,sans-Serif" font-size="10.00" fill="#0f172a">Novice</text>
</g>
<!-- MaleSenior&#45;&gt;MaleSenior_Novice -->
<g id="edge17" class="edge">
<title>MaleSenior&#45;&gt;MaleSenior_Novice</title>
<path fill="none" stroke="#94a3b8" d="M893.68,-93.09C888.69,-86.63 883.43,-79.03 879.62,-71.5 875.46,-63.25 872.16,-53.73 869.66,-45.07"/>
<polygon fill="#94a3b8" stroke="#94a3b8" points="872.43,-44.58 867.65,-37.58 867.02,-46.03 872.43,-44.58"/>
<text text-anchor="middle" x="903.62" y="-62.95" font-family="Helvetica,sans-Serif" font-style="oblique" font-size="9.00" fill="#94a3b8">0&#45;5 Fights</text>
</g>
<!-- MaleSenior_Experienced -->
<g id="node19" class="node">
<title>MaleSenior_Experienced</title>
<path fill="#99f6e4" stroke="#0f766e" stroke-width="1.2" d="M977.62,-36C977.62,-36 931.62,-36 931.62,-36 925.62,-36 919.62,-30 919.62,-24 919.62,-24 919.62,-12 919.62,-12 919.62,-6 925.62,0 931.62,0 931.62,0 977.62,0 977.62,0 983.62,0 989.62,-6 989.62,-12 989.62,-12 989.62,-24 989.62,-24 989.62,-30 983.62,-36 977.62,-36"/>
<text text-anchor="middle" x="954.62" y="-20.5" font-family="Helvetica,sans-Serif" font-size="10.00" fill="#0f172a">Male Senior</text>
<text text-anchor="middle" x="954.62" y="-8.5" font-family="Helvetica,sans-Serif" font-size="10.00" fill="#0f172a">Experienced</text>
</g>
<!-- MaleSenior&#45;&gt;MaleSenior_Experienced -->
<g id="edge18" class="edge">
<title>MaleSenior&#45;&gt;MaleSenior_Experienced</title>
<path fill="none" stroke="#94a3b8" d="M917.64,-93.05C921.09,-86.33 925.06,-78.57 928.62,-71.5 933.04,-62.74 937.82,-53.12 942.07,-44.54"/>
<polygon fill="#94a3b8" stroke="#94a3b8" points="944.55,-45.82 945.58,-37.41 939.53,-43.35 944.55,-45.82"/>
<text text-anchor="middle" x="962.1" y="-62.95" font-family="Helvetica,sans-Serif" font-style="oblique" font-size="9.00" fill="#94a3b8">6&#45;10 Fights</text>
</g>
<!-- MaleSenior_OpenClass -->
<g id="node20" class="node">
<title>MaleSenior_OpenClass</title>
<path fill="#99f6e4" stroke="#0f766e" stroke-width="1.2" d="M1067.5,-36C1067.5,-36 1023.75,-36 1023.75,-36 1017.75,-36 1011.75,-30 1011.75,-24 1011.75,-24 1011.75,-12 1011.75,-12 1011.75,-6 1017.75,0 1023.75,0 1023.75,0 1067.5,0 1067.5,0 1073.5,0 1079.5,-6 1079.5,-12 1079.5,-12 1079.5,-24 1079.5,-24 1079.5,-30 1073.5,-36 1067.5,-36"/>
<text text-anchor="middle" x="1045.62" y="-20.5" font-family="Helvetica,sans-Serif" font-size="10.00" fill="#0f172a">Male Senior</text>
<text text-anchor="middle" x="1045.62" y="-8.5" font-family="Helvetica,sans-Serif" font-size="10.00" fill="#0f172a">Open Class</text>
</g>
<!-- MaleSenior&#45;&gt;MaleSenior_OpenClass -->
<g id="edge19" class="edge">
<title>MaleSenior&#45;&gt;MaleSenior_OpenClass</title>
<path fill="none" stroke="#94a3b8" d="M935.99,-100.86C953.34,-94.07 975.79,-83.97 993.62,-71.5 1005.13,-63.46 1016.3,-52.69 1025.32,-43.01"/>
<polygon fill="#94a3b8" stroke="#94a3b8" points="1027.18,-45.13 1030.47,-37.32 1023.02,-41.38 1027.18,-45.13"/>
<text text-anchor="middle" x="1034.87" y="-62.95" font-family="Helvetica,sans-Serif" font-style="oblique" font-size="9.00" fill="#94a3b8">11+ Fights</text>
</g>
</g>
</svg>
