<?xml version="1.0" encoding="UTF-8" standalone="no"?>
<!DOCTYPE svg PUBLIC "-//W3C//DTD SVG 1.1//EN"
 "http://www.w3.org/Graphics/SVG/1.1/DTD/svg11.dtd">
<!-- Generated by graphviz version 12.2.1 (20241206.2353)
 -->
<!-- Title: Boxing Pages: 1 -->
<svg width="321pt" height="314pt"
 viewBox="0.00 0.00 321.00 314.00" xmlns="http://www.w3.org/2000/svg" xmlns:xlink="http://www.w3.org/1999/xlink">
<g id="graph0" class="graph" transform="scale(1 1) rotate(0) translate(4 310)">
<title>Boxing</title>
<polygon fill="white" stroke="none" points="-4,4 -4,-310 317,-310 317,4 -4,4"/>
<!-- Boxers -->
<g id="node1" class="node">
<title>Boxers</title>
<path fill="none" stroke="black" d="M42.25,-156C42.25,-156 12,-156 12,-156 6,-156 0,-150 0,-144 0,-144 0,-132 0,-132 0,-126 6,-120 12,-120 12,-120 42.25,-120 42.25,-120 48.25,-120 54.25,-126 54.25,-132 54.25,-132 54.25,-144 54.25,-144 54.25,-150 48.25,-156 42.25,-156"/>
<text text-anchor="middle" x="27.12" y="-132.95" font-family="Times New Roman,serif" font-size="14.00">Boxers</text>
</g>
<!-- Male -->
<g id="node2" class="node">
<title>Male</title>
<path fill="none" stroke="black" d="M134.5,-211C134.5,-211 104.5,-211 104.5,-211 98.5,-211 92.5,-205 92.5,-199 92.5,-199 92.5,-187 92.5,-187 92.5,-181 98.5,-175 104.5,-175 104.5,-175 134.5,-175 134.5,-175 140.5,-175 146.5,-181 146.5,-187 146.5,-187 146.5,-199 146.5,-199 146.5,-205 140.5,-211 134.5,-211"/>
<text text-anchor="middle" x="119.5" y="-187.95" font-family="Times New Roman,serif" font-size="14.00">Male</text>
</g>
<!-- Boxers&#45;&gt;Male -->
<g id="edge1" class="edge">
<title>Boxers&#45;&gt;Male</title>
<path fill="none" stroke="black" d="M54.27,-153.91C63.09,-159.28 73.09,-165.37 82.54,-171.12"/>
<polygon fill="black" stroke="black" points="80.45,-173.94 90.81,-176.15 84.09,-167.96 80.45,-173.94"/>
</g>
<!-- Female -->
<g id="node3" class="node">
<title>Female</title>
<path fill="none" stroke="black" d="M135.75,-130C135.75,-130 103.25,-130 103.25,-130 97.25,-130 91.25,-124 91.25,-118 91.25,-118 91.25,-106 91.25,-106 91.25,-100 97.25,-94 103.25,-94 103.25,-94 135.75,-94 135.75,-94 141.75,-94 147.75,-100 147.75,-106 147.75,-106 147.75,-118 147.75,-118 147.75,-124 141.75,-130 135.75,-130"/>
<text text-anchor="middle" x="119.5" y="-106.95" font-family="Times New Roman,serif" font-size="14.00">Female</text>
</g>
<!-- Boxers&#45;&gt;Female -->
<g id="edge2" class="edge">
<title>Boxers&#45;&gt;Female</title>
<path fill="none" stroke="black" d="M54.27,-130.48C62.24,-128.19 71.18,-125.61 79.8,-123.13"/>
<polygon fill="black" stroke="black" points="80.75,-126.5 89.39,-120.37 78.81,-119.78 80.75,-126.5"/>
</g>
<!-- MaleJunior -->
<g id="node4" class="node">
<title>MaleJunior</title>
<path fill="none" stroke="black" d="M294.25,-306C294.25,-306 236.25,-306 236.25,-306 230.25,-306 224.25,-300 224.25,-294 224.25,-294 224.25,-282 224.25,-282 224.25,-276 230.25,-270 236.25,-270 236.25,-270 294.25,-270 294.25,-270 300.25,-270 306.25,-276 306.25,-282 306.25,-282 306.25,-294 306.25,-294 306.25,-300 300.25,-306 294.25,-306"/>
<text text-anchor="middle" x="265.25" y="-282.95" font-family="Times New Roman,serif" font-size="14.00">Male Junior</text>
</g>
<!-- Male&#45;&gt;MaleJunior -->
<g id="edge3" class="edge">
<title>Male&#45;&gt;MaleJunior</title>
<path fill="none" stroke="black" d="M136.03,-211.47C144.25,-220.51 154.87,-231.11 165.75,-239 180.46,-249.67 197.84,-259.18 213.88,-266.92"/>
<polygon fill="black" stroke="black" points="212.27,-270.03 222.81,-271.1 215.24,-263.69 212.27,-270.03"/>
<text text-anchor="middle" x="182.62" y="-262.68" font-family="Times New Roman,serif" font-size="14.00">&lt;15</text>
</g>
<!-- MaleYouth -->
<g id="node5" class="node">
<title>MaleYouth</title>
<path fill="none" stroke="black" d="M293.5,-252C293.5,-252 237,-252 237,-252 231,-252 225,-246 225,-240 225,-240 225,-228 225,-228 225,-222 231,-216 237,-216 237,-216 293.5,-216 293.5,-216 299.5,-216 305.5,-222 305.5,-228 305.5,-228 305.5,-240 305.5,-240 305.5,-246 299.5,-252 293.5,-252"/>
<text text-anchor="middle" x="265.25" y="-228.95" font-family="Times New Roman,serif" font-size="14.00">Male Youth</text>
</g>
<!-- Male&#45;&gt;MaleYouth -->
<g id="edge4" class="edge">
<title>Male&#45;&gt;MaleYouth</title>
<path fill="none" stroke="black" d="M146.69,-202.72C152.9,-204.89 159.53,-207.12 165.75,-209 181.24,-213.69 198.28,-218.23 213.76,-222.13"/>
<polygon fill="black" stroke="black" points="212.7,-225.47 223.25,-224.48 214.38,-218.68 212.7,-225.47"/>
<text text-anchor="middle" x="182.62" y="-221.28" font-family="Times New Roman,serif" font-size="14.00">16–17</text>
</g>
<!-- MaleSenior -->
<g id="node6" class="node">
<title>MaleSenior</title>
<path fill="none" stroke="black" d="M295,-198C295,-198 235.5,-198 235.5,-198 229.5,-198 223.5,-192 223.5,-186 223.5,-186 223.5,-174 223.5,-174 223.5,-168 229.5,-162 235.5,-162 235.5,-162 295,-162 295,-162 301,-162 307,-168 307,-174 307,-174 307,-186 307,-186 307,-192 301,-198 295,-198"/>
<text text-anchor="middle" x="265.25" y="-174.95" font-family="Times New Roman,serif" font-size="14.00">Male Senior</text>
</g>
<!-- Male&#45;&gt;MaleSenior -->
<g id="edge5" class="edge">
<title>Male&#45;&gt;MaleSenior</title>
<path fill="none" stroke="black" d="M146.87,-190.62C165.02,-188.97 189.75,-186.74 211.83,-184.74"/>
<polygon fill="black" stroke="black" points="211.94,-188.25 221.58,-183.86 211.31,-181.27 211.94,-188.25"/>
<text text-anchor="middle" x="182.62" y="-192" font-family="Times New Roman,serif" font-size="14.00">18+</text>
</g>
<!-- FemaleJunior -->
<g id="node7" class="node">
<title>FemaleJunior</title>
<path fill="none" stroke="black" d="M300.25,-144C300.25,-144 230.25,-144 230.25,-144 224.25,-144 218.25,-138 218.25,-132 218.25,-132 218.25,-120 218.25,-120 218.25,-114 224.25,-108 230.25,-108 230.25,-108 300.25,-108 300.25,-108 306.25,-108 312.25,-114 312.25,-120 312.25,-120 312.25,-132 312.25,-132 312.25,-138 306.25,-144 300.25,-144"/>
<text text-anchor="middle" x="265.25" y="-120.95" font-family="Times New Roman,serif" font-size="14.00">Female Junior</text>
</g>
<!-- Female&#45;&gt;FemaleJunior -->
<g id="edge6" class="edge">
<title>Female&#45;&gt;FemaleJunior</title>
<path fill="none" stroke="black" d="M148.22,-114.7C164.8,-116.31 186.5,-118.43 206.64,-120.39"/>
<polygon fill="black" stroke="black" points="206.15,-123.86 216.44,-121.34 206.83,-116.89 206.15,-123.86"/>
<text text-anchor="middle" x="182.62" y="-122.62" font-family="Times New Roman,serif" font-size="14.00">&lt;15</text>
</g>
<!-- FemaleYouth -->
<g id="node8" class="node">
<title>FemaleYouth</title>
<path fill="none" stroke="black" d="M299.5,-90C299.5,-90 231,-90 231,-90 225,-90 219,-84 219,-78 219,-78 219,-66 219,-66 219,-60 225,-54 231,-54 231,-54 299.5,-54 299.5,-54 305.5,-54 311.5,-60 311.5,-66 311.5,-66 311.5,-78 311.5,-78 311.5,-84 305.5,-90 299.5,-90"/>
<text text-anchor="middle" x="265.25" y="-66.95" font-family="Times New Roman,serif" font-size="14.00">Female Youth</text>
</g>
<!-- Female&#45;&gt;FemaleYouth -->
<g id="edge7" class="edge">
<title>Female&#45;&gt;FemaleYouth</title>
<path fill="none" stroke="black" d="M148.14,-102.11C153.93,-100.16 160.02,-98.19 165.75,-96.5 179.35,-92.49 194.14,-88.58 208.02,-85.1"/>
<polygon fill="black" stroke="black" points="208.58,-88.57 217.45,-82.77 206.9,-81.77 208.58,-88.57"/>
<text text-anchor="middle" x="182.62" y="-99.7" font-family="Times New Roman,serif" font-size="14.00">16–17</text>
</g>
<!-- FemaleSenior -->
<g id="node9" class="node">
<title>FemaleSenior</title>
<path fill="none" stroke="black" d="M301,-36C301,-36 229.5,-36 229.5,-36 223.5,-36 217.5,-30 217.5,-24 217.5,-24 217.5,-12 217.5,-12 217.5,-6 223.5,0 229.5,0 229.5,0 301,0 301,0 307,0 313,-6 313,-12 313,-12 313,-24 313,-24 313,-30 307,-36 301,-36"/>
<text text-anchor="middle" x="265.25" y="-12.95" font-family="Times New Roman,serif" font-size="14.00">Female Senior</text>
</g>
<!-- Female&#45;&gt;FemaleSenior -->
<g id="edge8" class="edge">
<title>Female&#45;&gt;FemaleSenior</title>
<path fill="none" stroke="black" d="M136.56,-93.75C144.74,-85.11 155.18,-75.07 165.75,-67.5 179.41,-57.72 195.27,-48.83 210.23,-41.37"/>
<polygon fill="black" stroke="black" points="211.57,-44.61 219.04,-37.1 208.52,-38.31 211.57,-44.61"/>
<text text-anchor="middle" x="182.62" y="-70.7" font-family="Times New Roman,serif" font-size="14.00">18+</text>
</g>
</g>
</svg>
