<?xml version="1.0" encoding="UTF-8" standalone="no"?>
<svg width="1400" height="2000" xmlns="http://www.w3.org/2000/svg">
  <defs>
    <!-- Gradient for places -->
    <linearGradient id="placeGradient" x1="0%" y1="0%" x2="0%" y2="100%">
      <stop offset="0%" style="stop-color:#e0f7fa;stop-opacity:1" />
      <stop offset="100%" style="stop-color:#b2ebf2;stop-opacity:1" />
    </linearGradient>
    <linearGradient id="finalGradient" x1="0%" y1="0%" x2="0%" y2="100%">
      <stop offset="0%" style="stop-color:#c8e6c9;stop-opacity:1" />
      <stop offset="100%" style="stop-color:#a5d6a7;stop-opacity:1" />
    </linearGradient>
    <linearGradient id="initialGradient" x1="0%" y1="0%" x2="0%" y2="100%">
      <stop offset="0%" style="stop-color:#fff9c4;stop-opacity:1" />
      <stop offset="100%" style="stop-color:#fff59d;stop-opacity:1" />
    </linearGradient>
  
    <marker id="arrowhead" markerWidth="10" markerHeight="10" refX="8" refY="3" orient="auto">
      <polygon points="0 0, 10 3, 0 6" fill="#666" />
    </marker>
  </defs>
  
  <!-- Title -->
  <text x="700" y="30" font-family="Arial, sans-serif" font-size="24" font-weight="bold" text-anchor="middle">
    TSC 2025 Boxing Tournament - Petri Net
  </text>
  
  <!-- Legend -->
  <g transform="translate(20, 60)">
    <text x="0" y="0" font-family="Arial" font-size="14" font-weight="bold">Legend:</text>
    <circle cx="10" cy="20" r="15" fill="url(#initialGradient)" stroke="#f57f17" stroke-width="2"/>
    <text x="35" y="25" font-family="Arial" font-size="12">Initial State</text>
    
    <circle cx="10" cy="50" r="15" fill="url(#placeGradient)" stroke="#0277bd" stroke-width="2"/>
    <text x="35" y="55" font-family="Arial" font-size="12">Intermediate State</text>
    
    <circle cx="10" cy="80" r="15" fill="url(#finalGradient)" stroke="#2e7d32" stroke-width="2"/>
    <text x="35" y="85" font-family="Arial" font-size="12">Final Bucket</text>
    
    <rect x="-5" y="100" width="30" height="20" fill="#ffffff" stroke="#333" stroke-width="2"/>
    <text x="35" y="115" font-family="Arial" font-size="12">Transition (Filter)</text>
  </g>

  <!-- Arcs -->
  <g id="arcs">
    <line x1="700" y1="180" x2="150" y2="240" 
        stroke="#666" stroke-width="2" marker-end="url(#arrowhead)"/>
    <line x1="150" y1="240" x2="150" y2="300" 
        stroke="#666" stroke-width="2" marker-end="url(#arrowhead)"/>
    <line x1="700" y1="180" x2="1200" y2="240" 
        stroke="#666" stroke-width="2" marker-end="url(#arrowhead)"/>
    <line x1="1200" y1="240" x2="1200" y2="300" 
        stroke="#666" stroke-width="2" marker-end="url(#arrowhead)"/>
    <line x1="1200" y1="300" x2="700" y2="360" 
        stroke="#666" stroke-width="2" marker-end="url(#arrowhead)"/>
    <line x1="700" y1="360" x2="700" y2="420" 
        stroke="#666" stroke-width="2" marker-end="url(#arrowhead)"/>
    <line x1="1200" y1="300" x2="1250" y2="360" 
        stroke="#666" stroke-width="2" marker-end="url(#arrowhead)"/>
    <line x1="1250" y1="360" x2="1250" y2="420" 
        stroke="#666" stroke-width="2" marker-end="url(#arrowhead)"/>
    <line x1="700" y1="420" x2="250" y2="500" 
        stroke="#666" stroke-width="2" marker-end="url(#arrowhead)"/>
    <line x1="250" y1="500" x2="250" y2="580" 
        stroke="#666" stroke-width="2" marker-end="url(#arrowhead)"/>
    <line x1="700" y1="420" x2="700" y2="500" 
        stroke="#666" stroke-width="2" marker-end="url(#arrowhead)"/>
    <line x1="700" y1="500" x2="700" y2="580" 
        stroke="#666" stroke-width="2" marker-end="url(#arrowhead)"/>
    <line x1="700" y1="420" x2="1150" y2="500" 
        stroke="#666" stroke-width="2" marker-end="url(#arrowhead)"/>
    <line x1="1150" y1="500" x2="1150" y2="580" 
        stroke="#666" stroke-width="2" marker-end="url(#arrowhead)"/>
    <line x1="1250" y1="420" x2="1100" y2="560" 
        stroke="#666" stroke-width="2" marker-end="url(#arrowhead)"/>
    <line x1="1100" y1="560" x2="1100" y2="700" 
        stroke="#666" stroke-width="2" marker-end="url(#arrowhead)"/>
    <line x1="1250" y1="420" x2="1250" y2="560" 
        stroke="#666" stroke-width="2" marker-end="url(#arrowhead)"/>
    <line x1="1250" y1="560" x2="1250" y2="700" 
        stroke="#666" stroke-width="2" marker-end="url(#arrowhead)"/>
    <line x1="1250" y1="420" x2="1400" y2="560" 
        stroke="#666" stroke-width="2" marker-end="url(#arrowhead)"/>
    <line x1="1400" y1="560" x2="1400" y2="700" 
        stroke="#666" stroke-width="2" marker-end="url(#arrowhead)"/>
    <line x1="250" y1="580" x2="150" y2="710" 
        stroke="#666" stroke-width="2" marker-end="url(#arrowhead)"/>
    <line x1="150" y1="710" x2="150" y2="840" 
        stroke="#666" stroke-width="2" marker-end="url(#arrowhead)"/>
    <line x1="250" y1="580" x2="350" y2="710" 
        stroke="#666" stroke-width="2" marker-end="url(#arrowhead)"/>
    <line x1="350" y1="710" x2="350" y2="840" 
        stroke="#666" stroke-width="2" marker-end="url(#arrowhead)"/>
    <line x1="700" y1="580" x2="600" y2="710" 
        stroke="#666" stroke-width="2" marker-end="url(#arrowhead)"/>
    <line x1="600" y1="710" x2="600" y2="840" 
        stroke="#666" stroke-width="2" marker-end="url(#arrowhead)"/>
    <line x1="700" y1="580" x2="800" y2="710" 
        stroke="#666" stroke-width="2" marker-end="url(#arrowhead)"/>
    <line x1="800" y1="710" x2="800" y2="840" 
        stroke="#666" stroke-width="2" marker-end="url(#arrowhead)"/>
    <line x1="1150" y1="580" x2="1050" y2="710" 
        stroke="#666" stroke-width="2" marker-end="url(#arrowhead)"/>
    <line x1="1050" y1="710" x2="1050" y2="840" 
        stroke="#666" stroke-width="2" marker-end="url(#arrowhead)"/>
    <line x1="1150" y1="580" x2="1250" y2="710" 
        stroke="#666" stroke-width="2" marker-end="url(#arrowhead)"/>
    <line x1="1250" y1="710" x2="1250" y2="840" 
        stroke="#666" stroke-width="2" marker-end="url(#arrowhead)"/>
    <line x1="150" y1="840" x2="100" y2="970" 
        stroke="#666" stroke-width="2" marker-end="url(#arrowhead)"/>
    <line x1="100" y1="970" x2="100" y2="1100" 
        stroke="#666" stroke-width="2" marker-end="url(#arrowhead)"/>
    <line x1="150" y1="840" x2="200" y2="970" 
        stroke="#666" stroke-width="2" marker-end="url(#arrowhead)"/>
    <line x1="200" y1="970" x2="200" y2="1100" 
        stroke="#666" stroke-width="2" marker-end="url(#arrowhead)"/>
    <line x1="350" y1="840" x2="300" y2="970" 
        stroke="#666" stroke-width="2" marker-end="url(#arrowhead)"/>
    <line x1="300" y1="970" x2="300" y2="1100" 
        stroke="#666" stroke-width="2" marker-end="url(#arrowhead)"/>
    <line x1="350" y1="840" x2="400" y2="970" 
        stroke="#666" stroke-width="2" marker-end="url(#arrowhead)"/>
    <line x1="400" y1="970" x2="400" y2="1100" 
        stroke="#666" stroke-width="2" marker-end="url(#arrowhead)"/>
    <line x1="600" y1="840" x2="550" y2="970" 
        stroke="#666" stroke-width="2" marker-end="url(#arrowhead)"/>
    <line x1="550" y1="970" x2="550" y2="1100" 
        stroke="#666" stroke-width="2" marker-end="url(#arrowhead)"/>
    <line x1="600" y1="840" x2="650" y2="970" 
        stroke="#666" stroke-width="2" marker-end="url(#arrowhead)"/>
    <line x1="650" y1="970" x2="650" y2="1100" 
        stroke="#666" stroke-width="2" marker-end="url(#arrowhead)"/>
    <line x1="800" y1="840" x2="750" y2="970" 
        stroke="#666" stroke-width="2" marker-end="url(#arrowhead)"/>
    <line x1="750" y1="970" x2="750" y2="1100" 
        stroke="#666" stroke-width="2" marker-end="url(#arrowhead)"/>
    <line x1="800" y1="840" x2="850" y2="970" 
        stroke="#666" stroke-width="2" marker-end="url(#arrowhead)"/>
    <line x1="850" y1="970" x2="850" y2="1100" 
        stroke="#666" stroke-width="2" marker-end="url(#arrowhead)"/>
    <line x1="1050" y1="840" x2="1000" y2="970" 
        stroke="#666" stroke-width="2" marker-end="url(#arrowhead)"/>
    <line x1="1000" y1="970" x2="1000" y2="1100" 
        stroke="#666" stroke-width="2" marker-end="url(#arrowhead)"/>
    <line x1="1050" y1="840" x2="1100" y2="970" 
        stroke="#666" stroke-width="2" marker-end="url(#arrowhead)"/>
    <line x1="1100" y1="970" x2="1100" y2="1100" 
        stroke="#666" stroke-width="2" marker-end="url(#arrowhead)"/>
    <line x1="1250" y1="840" x2="1200" y2="970" 
        stroke="#666" stroke-width="2" marker-end="url(#arrowhead)"/>
    <line x1="1200" y1="970" x2="1200" y2="1100" 
        stroke="#666" stroke-width="2" marker-end="url(#arrowhead)"/>
    <line x1="1250" y1="840" x2="1300" y2="970" 
        stroke="#666" stroke-width="2" marker-end="url(#arrowhead)"/>
    <line x1="1300" y1="970" x2="1300" y2="1100" 
        stroke="#666" stroke-width="2" marker-end="url(#arrowhead)"/>
  </g>

  <!-- Places -->
  <g id="places">
    <circle cx="700" cy="180" r="40" 
      fill="url(#initialGradient)" stroke="#f57f17" stroke-width="3"/>
    <text x="700" y="185" 
        font-family="Arial" font-size="16" font-weight="bold" 
        text-anchor="middle" fill="#000">137</text>
    <text x="700" y="235" 
      font-family="Arial" font-size="11" text-anchor="middle" fill="#000">All Boxers</text>
    <circle cx="150" cy="300" r="30" 
      fill="url(#finalGradient)" stroke="#2e7d32" stroke-width="3"/>
    <text x="150" y="305" 
        font-family="Arial" font-size="16" font-weight="bold" 
        text-anchor="middle" fill="#000">1</text>
    <text x="150" y="345" 
      font-family="Arial" font-size="11" text-anchor="middle" fill="#000">Not Fit</text>
    <circle cx="1200" cy="300" r="30" 
      fill="url(#placeGradient)" stroke="#0277bd" stroke-width="3"/>
    <text x="1200" y="305" 
        font-family="Arial" font-size="16" font-weight="bold" 
        text-anchor="middle" fill="#000">136</text>
    <text x="1200" y="345" 
      font-family="Arial" font-size="11" text-anchor="middle" fill="#000">Fit</text>
    <circle cx="700" cy="420" r="30" 
      fill="url(#placeGradient)" stroke="#0277bd" stroke-width="3"/>
    <text x="700" y="425" 
        font-family="Arial" font-size="16" font-weight="bold" 
        text-anchor="middle" fill="#000">126</text>
    <text x="700" y="465" 
      font-family="Arial" font-size="11" text-anchor="middle" fill="#000">Fit Males</text>
    <circle cx="1250" cy="420" r="30" 
      fill="url(#placeGradient)" stroke="#0277bd" stroke-width="3"/>
    <text x="1250" y="425" 
        font-family="Arial" font-size="16" font-weight="bold" 
        text-anchor="middle" fill="#000">11</text>
    <text x="1250" y="465" 
      font-family="Arial" font-size="11" text-anchor="middle" fill="#000">Fit Females</text>
    <circle cx="250" cy="580" r="30" 
      fill="url(#placeGradient)" stroke="#0277bd" stroke-width="3"/>
    <text x="250" y="585" 
        font-family="Arial" font-size="16" font-weight="bold" 
        text-anchor="middle" fill="#000">51</text>
    <text x="250" y="625" 
      font-family="Arial" font-size="11" text-anchor="middle" fill="#000">Male Junior</text>
    <circle cx="700" cy="580" r="30" 
      fill="url(#placeGradient)" stroke="#0277bd" stroke-width="3"/>
    <text x="700" y="585" 
        font-family="Arial" font-size="16" font-weight="bold" 
        text-anchor="middle" fill="#000">28</text>
    <text x="700" y="625" 
      font-family="Arial" font-size="11" text-anchor="middle" fill="#000">Male Youth</text>
    <circle cx="1150" cy="580" r="30" 
      fill="url(#placeGradient)" stroke="#0277bd" stroke-width="3"/>
    <text x="1150" y="585" 
        font-family="Arial" font-size="16" font-weight="bold" 
        text-anchor="middle" fill="#000">47</text>
    <text x="1150" y="625" 
      font-family="Arial" font-size="11" text-anchor="middle" fill="#000">Male Senior</text>
    <circle cx="1100" cy="700" r="30" 
      fill="url(#finalGradient)" stroke="#2e7d32" stroke-width="3"/>
    <text x="1100" y="705" 
        font-family="Arial" font-size="16" font-weight="bold" 
        text-anchor="middle" fill="#000">2</text>
    <text x="1100" y="745" 
      font-family="Arial" font-size="11" text-anchor="middle" fill="#000">Female Junior</text>
    <circle cx="1250" cy="700" r="30" 
      fill="url(#finalGradient)" stroke="#2e7d32" stroke-width="3"/>
    <text x="1250" y="705" 
        font-family="Arial" font-size="16" font-weight="bold" 
        text-anchor="middle" fill="#000">3</text>
    <text x="1250" y="745" 
      font-family="Arial" font-size="11" text-anchor="middle" fill="#000">Female Youth</text>
    <circle cx="1400" cy="700" r="30" 
      fill="url(#finalGradient)" stroke="#2e7d32" stroke-width="3"/>
    <text x="1400" y="705" 
        font-family="Arial" font-size="16" font-weight="bold" 
        text-anchor="middle" fill="#000">6</text>
    <text x="1400" y="745" 
      font-family="Arial" font-size="11" text-anchor="middle" fill="#000">Female Senior</text>
    <circle cx="150" cy="840" r="30" 
      fill="url(#placeGradient)" stroke="#0277bd" stroke-width="3"/>
    <text x="150" y="845" 
        font-family="Arial" font-size="16" font-weight="bold" 
        text-anchor="middle" fill="#000">27</text>
    <text x="150" y="885" 
      font-family="Arial" font-size="11" text-anchor="middle" fill="#000">Jr WC1</text>
    <circle cx="350" cy="840" r="30" 
      fill="url(#placeGradient)" stroke="#0277bd" stroke-width="3"/>
    <text x="350" y="845" 
        font-family="Arial" font-size="16" font-weight="bold" 
        text-anchor="middle" fill="#000">24</text>
    <text x="350" y="885" 
      font-family="Arial" font-size="11" text-anchor="middle" fill="#000">Jr WC2</text>
    <circle cx="600" cy="840" r="30" 
      fill="url(#placeGradient)" stroke="#0277bd" stroke-width="3"/>
    <text x="600" y="845" 
        font-family="Arial" font-size="16" font-weight="bold" 
        text-anchor="middle" fill="#000">13</text>
    <text x="600" y="885" 
      font-family="Arial" font-size="11" text-anchor="middle" fill="#000">Yt WC1</text>
    <circle cx="800" cy="840" r="30" 
      fill="url(#placeGradient)" stroke="#0277bd" stroke-width="3"/>
    <text x="800" y="845" 
        font-family="Arial" font-size="16" font-weight="bold" 
        text-anchor="middle" fill="#000">15</text>
    <text x="800" y="885" 
      font-family="Arial" font-size="11" text-anchor="middle" fill="#000">Yt WC2</text>
    <circle cx="1050" cy="840" r="30" 
      fill="url(#placeGradient)" stroke="#0277bd" stroke-width="3"/>
    <text x="1050" y="845" 
        font-family="Arial" font-size="16" font-weight="bold" 
        text-anchor="middle" fill="#000">20</text>
    <text x="1050" y="885" 
      font-family="Arial" font-size="11" text-anchor="middle" fill="#000">Sr WC1</text>
    <circle cx="1250" cy="840" r="30" 
      fill="url(#placeGradient)" stroke="#0277bd" stroke-width="3"/>
    <text x="1250" y="845" 
        font-family="Arial" font-size="16" font-weight="bold" 
        text-anchor="middle" fill="#000">27</text>
    <text x="1250" y="885" 
      font-family="Arial" font-size="11" text-anchor="middle" fill="#000">Sr WC2</text>
    <circle cx="100" cy="1100" r="30" 
      fill="url(#finalGradient)" stroke="#2e7d32" stroke-width="3"/>
    <text x="100" y="1105" 
        font-family="Arial" font-size="16" font-weight="bold" 
        text-anchor="middle" fill="#000">7</text>
    <text x="100" y="1145" 
      font-family="Arial" font-size="11" text-anchor="middle" fill="#000">Jr WC1 Nov</text>
    <circle cx="200" cy="1100" r="30" 
      fill="url(#finalGradient)" stroke="#2e7d32" stroke-width="3"/>
    <text x="200" y="1105" 
        font-family="Arial" font-size="16" font-weight="bold" 
        text-anchor="middle" fill="#000">19</text>
    <text x="200" y="1145" 
      font-family="Arial" font-size="11" text-anchor="middle" fill="#000">Jr WC1 Exp</text>
    <circle cx="300" cy="1100" r="30" 
      fill="url(#finalGradient)" stroke="#2e7d32" stroke-width="3"/>
    <text x="300" y="1105" 
        font-family="Arial" font-size="16" font-weight="bold" 
        text-anchor="middle" fill="#000">12</text>
    <text x="300" y="1145" 
      font-family="Arial" font-size="11" text-anchor="middle" fill="#000">Jr WC2 Nov</text>
    <circle cx="400" cy="1100" r="30" 
      fill="url(#finalGradient)" stroke="#2e7d32" stroke-width="3"/>
    <text x="400" y="1105" 
        font-family="Arial" font-size="16" font-weight="bold" 
        text-anchor="middle" fill="#000">12</text>
    <text x="400" y="1145" 
      font-family="Arial" font-size="11" text-anchor="middle" fill="#000">Jr WC2 Exp</text>
    <circle cx="550" cy="1100" r="30" 
      fill="url(#finalGradient)" stroke="#2e7d32" stroke-width="3"/>
    <text x="550" y="1105" 
        font-family="Arial" font-size="16" font-weight="bold" 
        text-anchor="middle" fill="#000">7</text>
    <text x="550" y="1145" 
      font-family="Arial" font-size="11" text-anchor="middle" fill="#000">Yt WC1 Nov</text>
    <circle cx="650" cy="1100" r="30" 
      fill="url(#finalGradient)" stroke="#2e7d32" stroke-width="3"/>
    <text x="650" y="1105" 
        font-family="Arial" font-size="16" font-weight="bold" 
        text-anchor="middle" fill="#000">6</text>
    <text x="650" y="1145" 
      font-family="Arial" font-size="11" text-anchor="middle" fill="#000">Yt WC1 Exp</text>
    <circle cx="750" cy="1100" r="30" 
      fill="url(#finalGradient)" stroke="#2e7d32" stroke-width="3"/>
    <text x="750" y="1105" 
        font-family="Arial" font-size="16" font-weight="bold" 
        text-anchor="middle" fill="#000">7</text>
    <text x="750" y="1145" 
      font-family="Arial" font-size="11" text-anchor="middle" fill="#000">Yt WC2 Nov</text>
    <circle cx="850" cy="1100" r="30" 
      fill="url(#finalGradient)" stroke="#2e7d32" stroke-width="3"/>
    <text x="850" y="1105" 
        font-family="Arial" font-size="16" font-weight="bold" 
        text-anchor="middle" fill="#000">8</text>
    <text x="850" y="1145" 
      font-family="Arial" font-size="11" text-anchor="middle" fill="#000">Yt WC2 Exp</text>
    <circle cx="1000" cy="1100" r="30" 
      fill="url(#finalGradient)" stroke="#2e7d32" stroke-width="3"/>
    <text x="1000" y="1105" 
        font-family="Arial" font-size="16" font-weight="bold" 
        text-anchor="middle" fill="#000">5</text>
    <text x="1000" y="1145" 
      font-family="Arial" font-size="11" text-anchor="middle" fill="#000">Sr WC1 Nov</text>
    <circle cx="1100" cy="1100" r="30" 
      fill="url(#finalGradient)" stroke="#2e7d32" stroke-width="3"/>
    <text x="1100" y="1105" 
        font-family="Arial" font-size="16" font-weight="bold" 
        text-anchor="middle" fill="#000">15</text>
    <text x="1100" y="1145" 
      font-family="Arial" font-size="11" text-anchor="middle" fill="#000">Sr WC1 Exp</text>
    <circle cx="1200" cy="1100" r="30" 
      fill="url(#finalGradient)" stroke="#2e7d32" stroke-width="3"/>
    <text x="1200" y="1105" 
        font-family="Arial" font-size="16" font-weight="bold" 
        text-anchor="middle" fill="#000">12</text>
    <text x="1200" y="1145" 
      font-family="Arial" font-size="11" text-anchor="middle" fill="#000">Sr WC2 Nov</text>
    <circle cx="1300" cy="1100" r="30" 
      fill="url(#finalGradient)" stroke="#2e7d32" stroke-width="3"/>
    <text x="1300" y="1105" 
        font-family="Arial" font-size="16" font-weight="bold" 
        text-anchor="middle" fill="#000">15</text>
    <text x="1300" y="1145" 
      font-family="Arial" font-size="11" text-anchor="middle" fill="#000">Sr WC2 Exp</text>
  </g>

  <!-- Transitions -->
  <g id="transitions">
    <rect x="130" y="230" width="40" height="20" 
      fill="#ffffff" stroke="#333" stroke-width="2"/>
    <text x="150" y="244" 
      font-family="Arial" font-size="9" text-anchor="middle" fill="#000">Not Fit</text>
    <rect x="1180" y="230" width="40" height="20" 
      fill="#ffffff" stroke="#333" stroke-width="2"/>
    <text x="1200" y="244" 
      font-family="Arial" font-size="9" text-anchor="middle" fill="#000">Is Fit</text>
    <rect x="680" y="350" width="40" height="20" 
      fill="#ffffff" stroke="#333" stroke-width="2"/>
    <text x="700" y="364" 
      font-family="Arial" font-size="9" text-anchor="middle" fill="#000">Male</text>
    <rect x="1230" y="350" width="40" height="20" 
      fill="#ffffff" stroke="#333" stroke-width="2"/>
    <text x="1250" y="364" 
      font-family="Arial" font-size="9" text-anchor="middle" fill="#000">Female</text>
    <rect x="230" y="490" width="40" height="20" 
      fill="#ffffff" stroke="#333" stroke-width="2"/>
    <text x="250" y="504" 
      font-family="Arial" font-size="9" text-anchor="middle" fill="#000">2009+</text>
    <rect x="680" y="490" width="40" height="20" 
      fill="#ffffff" stroke="#333" stroke-width="2"/>
    <text x="700" y="504" 
      font-family="Arial" font-size="9" text-anchor="middle" fill="#000">2007-08</text>
    <rect x="1130" y="490" width="40" height="20" 
      fill="#ffffff" stroke="#333" stroke-width="2"/>
    <text x="1150" y="504" 
      font-family="Arial" font-size="9" text-anchor="middle" fill="#000">≤2006</text>
    <rect x="1080" y="550" width="40" height="20" 
      fill="#ffffff" stroke="#333" stroke-width="2"/>
    <text x="1100" y="564" 
      font-family="Arial" font-size="9" text-anchor="middle" fill="#000">F Jr</text>
    <rect x="1230" y="550" width="40" height="20" 
      fill="#ffffff" stroke="#333" stroke-width="2"/>
    <text x="1250" y="564" 
      font-family="Arial" font-size="9" text-anchor="middle" fill="#000">F Yt</text>
    <rect x="1380" y="550" width="40" height="20" 
      fill="#ffffff" stroke="#333" stroke-width="2"/>
    <text x="1400" y="564" 
      font-family="Arial" font-size="9" text-anchor="middle" fill="#000">F Sr</text>
    <rect x="130" y="700" width="40" height="20" 
      fill="#ffffff" stroke="#333" stroke-width="2"/>
    <text x="150" y="714" 
      font-family="Arial" font-size="9" text-anchor="middle" fill="#000"><60kg</text>
    <rect x="330" y="700" width="40" height="20" 
      fill="#ffffff" stroke="#333" stroke-width="2"/>
    <text x="350" y="714" 
      font-family="Arial" font-size="9" text-anchor="middle" fill="#000">≥60kg</text>
    <rect x="580" y="700" width="40" height="20" 
      fill="#ffffff" stroke="#333" stroke-width="2"/>
    <text x="600" y="714" 
      font-family="Arial" font-size="9" text-anchor="middle" fill="#000"><70kg</text>
    <rect x="780" y="700" width="40" height="20" 
      fill="#ffffff" stroke="#333" stroke-width="2"/>
    <text x="800" y="714" 
      font-family="Arial" font-size="9" text-anchor="middle" fill="#000">≥70kg</text>
    <rect x="1030" y="700" width="40" height="20" 
      fill="#ffffff" stroke="#333" stroke-width="2"/>
    <text x="1050" y="714" 
      font-family="Arial" font-size="9" text-anchor="middle" fill="#000"><70kg</text>
    <rect x="1230" y="700" width="40" height="20" 
      fill="#ffffff" stroke="#333" stroke-width="2"/>
    <text x="1250" y="714" 
      font-family="Arial" font-size="9" text-anchor="middle" fill="#000">≥70kg</text>
    <rect x="80" y="960" width="40" height="20" 
      fill="#ffffff" stroke="#333" stroke-width="2"/>
    <text x="100" y="974" 
      font-family="Arial" font-size="9" text-anchor="middle" fill="#000">≤5</text>
    <rect x="180" y="960" width="40" height="20" 
      fill="#ffffff" stroke="#333" stroke-width="2"/>
    <text x="200" y="974" 
      font-family="Arial" font-size="9" text-anchor="middle" fill="#000">>5</text>
    <rect x="280" y="960" width="40" height="20" 
      fill="#ffffff" stroke="#333" stroke-width="2"/>
    <text x="300" y="974" 
      font-family="Arial" font-size="9" text-anchor="middle" fill="#000">≤5</text>
    <rect x="380" y="960" width="40" height="20" 
      fill="#ffffff" stroke="#333" stroke-width="2"/>
    <text x="400" y="974" 
      font-family="Arial" font-size="9" text-anchor="middle" fill="#000">>5</text>
    <rect x="530" y="960" width="40" height="20" 
      fill="#ffffff" stroke="#333" stroke-width="2"/>
    <text x="550" y="974" 
      font-family="Arial" font-size="9" text-anchor="middle" fill="#000">≤5</text>
    <rect x="630" y="960" width="40" height="20" 
      fill="#ffffff" stroke="#333" stroke-width="2"/>
    <text x="650" y="974" 
      font-family="Arial" font-size="9" text-anchor="middle" fill="#000">>5</text>
    <rect x="730" y="960" width="40" height="20" 
      fill="#ffffff" stroke="#333" stroke-width="2"/>
    <text x="750" y="974" 
      font-family="Arial" font-size="9" text-anchor="middle" fill="#000">≤5</text>
    <rect x="830" y="960" width="40" height="20" 
      fill="#ffffff" stroke="#333" stroke-width="2"/>
    <text x="850" y="974" 
      font-family="Arial" font-size="9" text-anchor="middle" fill="#000">>5</text>
    <rect x="980" y="960" width="40" height="20" 
      fill="#ffffff" stroke="#333" stroke-width="2"/>
    <text x="1000" y="974" 
      font-family="Arial" font-size="9" text-anchor="middle" fill="#000">≤5</text>
    <rect x="1080" y="960" width="40" height="20" 
      fill="#ffffff" stroke="#333" stroke-width="2"/>
    <text x="1100" y="974" 
      font-family="Arial" font-size="9" text-anchor="middle" fill="#000">>5</text>
    <rect x="1180" y="960" width="40" height="20" 
      fill="#ffffff" stroke="#333" stroke-width="2"/>
    <text x="1200" y="974" 
      font-family="Arial" font-size="9" text-anchor="middle" fill="#000">≤5</text>
    <rect x="1280" y="960" width="40" height="20" 
      fill="#ffffff" stroke="#333" stroke-width="2"/>
    <text x="1300" y="974" 
      font-family="Arial" font-size="9" text-anchor="middle" fill="#000">>5</text>
  </g>

  <!-- Summary -->
  <g transform="translate(20, 1200)">
    <rect x="0" y="0" width="350" height="180" fill="#f5f5f5" stroke="#333" stroke-width="2" rx="5"/>
    <text x="175" y="25" font-family="Arial" font-size="16" font-weight="bold" text-anchor="middle">Summary</text>
    
    <text x="10" y="50" font-family="Arial" font-size="12">Total Boxers: 137</text>
    <text x="10" y="70" font-family="Arial" font-size="12">Not Fit: 1</text>
    <text x="10" y="90" font-family="Arial" font-size="12">Fit: 136 (126 M, 11 F)</text>
    
    <text x="10" y="115" font-family="Arial" font-size="12" font-weight="bold">Final Buckets: 16</text>
    <text x="10" y="135" font-family="Arial" font-size="11">• 1 Not Fit</text>
    <text x="10" y="150" font-family="Arial" font-size="11">• 3 Female (by age)</text>
    <text x="10" y="165" font-family="Arial" font-size="11">• 12 Male (age × weight × exp)</text>
  </g>
  
  <!-- Levels annotation -->
  <g transform="translate(400, 1200)">
    <rect x="0" y="0" width="300" height="180" fill="#fff9c4" stroke="#f57f17" stroke-width="2" rx="5"/>
    <text x="150" y="25" font-family="Arial" font-size="16" font-weight="bold" text-anchor="middle">Filter Levels</text>
    
    <text x="10" y="50" font-family="Arial" font-size="12">Level 1: Fitness Check</text>
    <text x="10" y="70" font-family="Arial" font-size="12">Level 2: Gender Split</text>
    <text x="10" y="90" font-family="Arial" font-size="12">Level 3: Age Groups</text>
    <text x="10" y="110" font-family="Arial" font-size="12">Level 4: Weight Classes</text>
    <text x="10" y="130" font-family="Arial" font-size="12">Level 5: Experience</text>
    
    <text x="10" y="155" font-family="Arial" font-size="11" font-style="italic">Each boxer flows down</text>
    <text x="10" y="170" font-family="Arial" font-size="11" font-style="italic">exactly one path</text>
  </g>

</svg>