<?xml version="1.0" encoding="UTF-8" standalone="no"?>
<!DOCTYPE svg PUBLIC "-//W3C//DTD SVG 1.1//EN"
 "http://www.w3.org/Graphics/SVG/1.1/DTD/svg11.dtd">
<!-- Generated by graphviz version 12.2.1 (20241206.2353)
 -->
<!-- Title: Boxing Pages: 1 -->
<svg width="356pt" height="314pt"
 viewBox="0.00 0.00 356.00 314.00" xmlns="http://www.w3.org/2000/svg" xmlns:xlink="http://www.w3.org/1999/xlink">
<g id="graph0" class="graph" transform="scale(1 1) rotate(0) translate(4 310)">
<title>Boxing</title>
<polygon fill="white" stroke="none" points="-4,4 -4,-310 352,-310 352,4 -4,4"/>
<!-- Notfit -->
<g id="node1" class="node">
<title>Notfit</title>
<path fill="none" stroke="black" d="M172.5,-265C172.5,-265 142.5,-265 142.5,-265 136.5,-265 130.5,-259 130.5,-253 130.5,-253 130.5,-241 130.5,-241 130.5,-235 136.5,-229 142.5,-229 142.5,-229 172.5,-229 172.5,-229 178.5,-229 184.5,-235 184.5,-241 184.5,-241 184.5,-253 184.5,-253 184.5,-259 178.5,-265 172.5,-265"/>
<text text-anchor="middle" x="157.5" y="-241.95" font-family="Times New Roman,serif" font-size="14.00">Notfit</text>
</g>
<!-- Boxers -->
<g id="node2" class="node">
<title>Boxers</title>
<path fill="none" stroke="black" d="M42.25,-211C42.25,-211 12,-211 12,-211 6,-211 0,-205 0,-199 0,-199 0,-187 0,-187 0,-181 6,-175 12,-175 12,-175 42.25,-175 42.25,-175 48.25,-175 54.25,-181 54.25,-187 54.25,-187 54.25,-199 54.25,-199 54.25,-205 48.25,-211 42.25,-211"/>
<text text-anchor="middle" x="27.12" y="-187.95" font-family="Times New Roman,serif" font-size="14.00">Boxers</text>
</g>
<!-- Boxers&#45;&gt;Notfit -->
<g id="edge2" class="edge">
<title>Boxers&#45;&gt;Notfit</title>
<path fill="none" stroke="black" d="M54.72,-204.19C73.61,-212.13 99.2,-222.9 120,-231.65"/>
<polygon fill="black" stroke="black" points="118.4,-234.77 128.98,-235.42 121.12,-228.32 118.4,-234.77"/>
<text text-anchor="middle" x="91.75" y="-229.62" font-family="Times New Roman,serif" font-size="14.00">Not Fit</text>
</g>
<!-- Male -->
<g id="node3" class="node">
<title>Male</title>
<path fill="none" stroke="black" d="M172.5,-211C172.5,-211 142.5,-211 142.5,-211 136.5,-211 130.5,-205 130.5,-199 130.5,-199 130.5,-187 130.5,-187 130.5,-181 136.5,-175 142.5,-175 142.5,-175 172.5,-175 172.5,-175 178.5,-175 184.5,-181 184.5,-187 184.5,-187 184.5,-199 184.5,-199 184.5,-205 178.5,-211 172.5,-211"/>
<text text-anchor="middle" x="157.5" y="-187.95" font-family="Times New Roman,serif" font-size="14.00">Male</text>
</g>
<!-- Boxers&#45;&gt;Male -->
<g id="edge1" class="edge">
<title>Boxers&#45;&gt;Male</title>
<path fill="none" stroke="black" d="M54.72,-193C73.35,-193 98.5,-193 119.14,-193"/>
<polygon fill="black" stroke="black" points="118.86,-196.5 128.86,-193 118.86,-189.5 118.86,-196.5"/>
</g>
<!-- Female -->
<g id="node4" class="node">
<title>Female</title>
<path fill="none" stroke="black" d="M173.75,-130C173.75,-130 141.25,-130 141.25,-130 135.25,-130 129.25,-124 129.25,-118 129.25,-118 129.25,-106 129.25,-106 129.25,-100 135.25,-94 141.25,-94 141.25,-94 173.75,-94 173.75,-94 179.75,-94 185.75,-100 185.75,-106 185.75,-106 185.75,-118 185.75,-118 185.75,-124 179.75,-130 173.75,-130"/>
<text text-anchor="middle" x="157.5" y="-106.95" font-family="Times New Roman,serif" font-size="14.00">Female</text>
</g>
<!-- Boxers&#45;&gt;Female -->
<g id="edge3" class="edge">
<title>Boxers&#45;&gt;Female</title>
<path fill="none" stroke="black" d="M54.72,-176.22C73.41,-164.43 98.65,-148.5 119.32,-135.46"/>
<polygon fill="black" stroke="black" points="121.18,-138.42 127.77,-130.13 117.44,-132.5 121.18,-138.42"/>
</g>
<!-- MaleJunior -->
<g id="node5" class="node">
<title>MaleJunior</title>
<path fill="none" stroke="black" d="M329.25,-306C329.25,-306 271.25,-306 271.25,-306 265.25,-306 259.25,-300 259.25,-294 259.25,-294 259.25,-282 259.25,-282 259.25,-276 265.25,-270 271.25,-270 271.25,-270 329.25,-270 329.25,-270 335.25,-270 341.25,-276 341.25,-282 341.25,-282 341.25,-294 341.25,-294 341.25,-300 335.25,-306 329.25,-306"/>
<text text-anchor="middle" x="300.25" y="-282.95" font-family="Times New Roman,serif" font-size="14.00">Male Junior</text>
</g>
<!-- Male&#45;&gt;MaleJunior -->
<g id="edge4" class="edge">
<title>Male&#45;&gt;MaleJunior</title>
<path fill="none" stroke="black" d="M176.98,-211.29C179.92,-214.2 182.92,-217.18 185.75,-220 193.77,-227.98 194.63,-231.3 203.75,-238 217.59,-248.18 233.79,-257.48 248.87,-265.24"/>
<polygon fill="black" stroke="black" points="247.23,-268.33 257.74,-269.67 250.36,-262.07 247.23,-268.33"/>
<text text-anchor="middle" x="219.12" y="-260.26" font-family="Times New Roman,serif" font-size="14.00">&lt;15</text>
</g>
<!-- MaleYouth -->
<g id="node6" class="node">
<title>MaleYouth</title>
<path fill="none" stroke="black" d="M328.5,-252C328.5,-252 272,-252 272,-252 266,-252 260,-246 260,-240 260,-240 260,-228 260,-228 260,-222 266,-216 272,-216 272,-216 328.5,-216 328.5,-216 334.5,-216 340.5,-222 340.5,-228 340.5,-228 340.5,-240 340.5,-240 340.5,-246 334.5,-252 328.5,-252"/>
<text text-anchor="middle" x="300.25" y="-228.95" font-family="Times New Roman,serif" font-size="14.00">Male Youth</text>
</g>
<!-- Male&#45;&gt;MaleYouth -->
<g id="edge5" class="edge">
<title>Male&#45;&gt;MaleYouth</title>
<path fill="none" stroke="black" d="M184.7,-202.68C190.91,-204.86 197.54,-207.09 203.75,-209 218.24,-213.45 234.12,-217.81 248.7,-221.61"/>
<polygon fill="black" stroke="black" points="247.52,-224.92 258.08,-224.02 249.27,-218.14 247.52,-224.92"/>
<text text-anchor="middle" x="219.12" y="-220.47" font-family="Times New Roman,serif" font-size="14.00">16/17</text>
</g>
<!-- MaleSenior -->
<g id="node7" class="node">
<title>MaleSenior</title>
<path fill="none" stroke="black" d="M330,-198C330,-198 270.5,-198 270.5,-198 264.5,-198 258.5,-192 258.5,-186 258.5,-186 258.5,-174 258.5,-174 258.5,-168 264.5,-162 270.5,-162 270.5,-162 330,-162 330,-162 336,-162 342,-168 342,-174 342,-174 342,-186 342,-186 342,-192 336,-198 330,-198"/>
<text text-anchor="middle" x="300.25" y="-174.95" font-family="Times New Roman,serif" font-size="14.00">Male Senior</text>
</g>
<!-- Male&#45;&gt;MaleSenior -->
<g id="edge6" class="edge">
<title>Male&#45;&gt;MaleSenior</title>
<path fill="none" stroke="black" d="M184.97,-190.55C202.38,-188.95 225.74,-186.79 246.81,-184.84"/>
<polygon fill="black" stroke="black" points="247.08,-188.33 256.72,-183.93 246.44,-181.36 247.08,-188.33"/>
<text text-anchor="middle" x="219.12" y="-192" font-family="Times New Roman,serif" font-size="14.00">18+</text>
</g>
<!-- FemaleJunior -->
<g id="node8" class="node">
<title>FemaleJunior</title>
<path fill="none" stroke="black" d="M335.25,-144C335.25,-144 265.25,-144 265.25,-144 259.25,-144 253.25,-138 253.25,-132 253.25,-132 253.25,-120 253.25,-120 253.25,-114 259.25,-108 265.25,-108 265.25,-108 335.25,-108 335.25,-108 341.25,-108 347.25,-114 347.25,-120 347.25,-120 347.25,-132 347.25,-132 347.25,-138 341.25,-144 335.25,-144"/>
<text text-anchor="middle" x="300.25" y="-120.95" font-family="Times New Roman,serif" font-size="14.00">Female Junior</text>
</g>
<!-- Female&#45;&gt;FemaleJunior -->
<g id="edge7" class="edge">
<title>Female&#45;&gt;FemaleJunior</title>
<path fill="none" stroke="black" d="M185.97,-114.73C201.81,-116.31 222.35,-118.35 241.57,-120.26"/>
<polygon fill="black" stroke="black" points="241.2,-123.74 251.5,-121.25 241.9,-116.78 241.2,-123.74"/>
<text text-anchor="middle" x="219.12" y="-122.62" font-family="Times New Roman,serif" font-size="14.00">&lt;15</text>
</g>
<!-- FemaleYouth -->
<g id="node9" class="node">
<title>FemaleYouth</title>
<path fill="none" stroke="black" d="M334.5,-90C334.5,-90 266,-90 266,-90 260,-90 254,-84 254,-78 254,-78 254,-66 254,-66 254,-60 260,-54 266,-54 266,-54 334.5,-54 334.5,-54 340.5,-54 346.5,-60 346.5,-66 346.5,-66 346.5,-78 346.5,-78 346.5,-84 340.5,-90 334.5,-90"/>
<text text-anchor="middle" x="300.25" y="-66.95" font-family="Times New Roman,serif" font-size="14.00">Female Youth</text>
</g>
<!-- Female&#45;&gt;FemaleYouth -->
<g id="edge8" class="edge">
<title>Female&#45;&gt;FemaleYouth</title>
<path fill="none" stroke="black" d="M186.15,-102.14C191.94,-100.19 198.02,-98.21 203.75,-96.5 216.31,-92.75 229.9,-89.04 242.78,-85.7"/>
<polygon fill="black" stroke="black" points="243.58,-89.11 252.4,-83.24 241.85,-82.33 243.58,-89.11"/>
<text text-anchor="middle" x="219.12" y="-99.7" font-family="Times New Roman,serif" font-size="14.00">16/17</text>
</g>
<!-- FemaleSenior -->
<g id="node10" class="node">
<title>FemaleSenior</title>
<path fill="none" stroke="black" d="M336,-36C336,-36 264.5,-36 264.5,-36 258.5,-36 252.5,-30 252.5,-24 252.5,-24 252.5,-12 252.5,-12 252.5,-6 258.5,0 264.5,0 264.5,0 336,0 336,0 342,0 348,-6 348,-12 348,-12 348,-24 348,-24 348,-30 342,-36 336,-36"/>
<text text-anchor="middle" x="300.25" y="-12.95" font-family="Times New Roman,serif" font-size="14.00">Female Senior</text>
</g>
<!-- Female&#45;&gt;FemaleSenior -->
<g id="edge9" class="edge">
<title>Female&#45;&gt;FemaleSenior</title>
<path fill="none" stroke="black" d="M174.6,-93.8C182.79,-85.19 193.23,-75.13 203.75,-67.5 217.14,-57.79 232.69,-48.87 247.31,-41.36"/>
<polygon fill="black" stroke="black" points="248.51,-44.68 255.89,-37.07 245.38,-38.41 248.51,-44.68"/>
<text text-anchor="middle" x="219.12" y="-70.7" font-family="Times New Roman,serif" font-size="14.00">18+</text>
</g>
</g>
</svg>
